<?xml version="1.0" encoding="utf-8"?>
<!-- Generator: Adobe Illustrator 27.0.0, SVG Export Plug-In . SVG Version: 6.00 Build 0)  -->
<svg version="1.1" id="Camada_1" xmlns="http://www.w3.org/2000/svg" xmlns:xlink="http://www.w3.org/1999/xlink" x="0px" y="0px"
	 viewBox="0 0 500 500" style="enable-background:new 0 0 500 500;" xml:space="preserve">
<style type="text/css">
	.st0{fill:#E20046;}
	.st1{opacity:0.7;fill:#FFFFFF;enable-background:new    ;}
	.st2{opacity:0.3;}
	.st3{fill:none;stroke:#263238;stroke-linecap:round;stroke-linejoin:round;}
	.st4{fill:#263238;}
	.st5{fill:#2E353B;stroke:#2E353B;stroke-linecap:round;stroke-linejoin:round;}
	.st6{fill:#E20046;stroke:#263238;stroke-linecap:round;stroke-linejoin:round;}
	.st7{fill:#9C9C9C;stroke:#263238;stroke-linecap:round;stroke-linejoin:round;}
	.st8{fill:#787878;}
	.st9{fill:#595959;}
	.st10{fill:#969696;}
	.st11{fill:#FFFFFF;}
	.st12{fill:none;stroke:#FFFFFF;stroke-miterlimit:10;}
	.st13{fill:#C7C7C7;}
	.st14{fill:#919191;}
	.st15{fill:#FFFFFF;stroke:#263238;stroke-linecap:round;stroke-linejoin:round;}
	.st16{fill:none;stroke:#263238;stroke-width:2;stroke-linecap:round;stroke-linejoin:round;}
</style>
<g id="freepik--background-simple--inject-87">
	<path class="st0" d="M446.3,145.3c0,0-80.4-115.8-180.8-128C176.9,6.4,94.7,48.8,83.2,140.4C79.2,173,71.9,209.1,59,238.8
		C44.5,272.2,19.8,300,38.8,364.2s98.8,122.1,156.8,122s112.6-52.9,157.6-100.9S541.4,292.2,446.3,145.3z"/>
	<path class="st1" d="M446.3,145.3c0,0-80.4-115.8-180.8-128C176.9,6.4,94.7,48.8,83.2,140.4C79.2,173,71.9,209.1,59,238.8
		C44.5,272.2,19.8,300,38.8,364.2s98.8,122.1,156.8,122s112.6-52.9,157.6-100.9S541.4,292.2,446.3,145.3z"/>
</g>
<g id="freepik--Poster--inject-87">
	<g class="st2">
		<rect x="41.1" y="35.7" class="st3" width="129.7" height="187.6"/>
		<polygon class="st3" points="124.5,161.2 111.6,161.2 111.6,148.2 90,148.2 90,161.2 77,161.2 77,182.7 90,182.7 90,195.7 
			111.6,195.7 111.6,182.7 124.5,182.7 		"/>
		<polygon class="st3" points="117.2,164.5 108.2,164.5 108.2,155.5 93.3,155.5 93.3,164.5 84.3,164.5 84.3,179.4 93.3,179.4 
			93.3,188.4 108.2,188.4 108.2,179.4 117.2,179.4 		"/>
		<path class="st3" d="M63.1,94c-2.1,0.1-4.1-0.4-5.8-1.6c-1.5-1.1-2.6-2.6-3.1-4.4c-0.6-2.1-1-4.4-0.9-6.6V69.3
			c0-2.3,0.3-4.6,0.9-6.7c0.6-1.8,1.7-3.3,3.3-4.3c1.9-1.1,4.2-1.6,6.4-1.5c2.1-0.1,4.3,0.3,6.2,1.3c1.5,0.8,2.6,2.1,3.3,3.7
			c0.7,1.8,1,3.7,1,5.7v2.1h-7.2v-2.6c0-0.8,0-1.7-0.1-2.5c-0.1-0.7-0.4-1.3-0.8-1.7c-0.6-0.5-1.4-0.7-2.2-0.6
			c-0.8-0.1-1.6,0.2-2.2,0.8c-0.5,0.6-0.8,1.3-0.9,2c-0.1,0.8-0.2,1.7-0.2,2.5v16.1c0,0.9,0.1,1.8,0.3,2.7c0.1,0.7,0.5,1.4,1,1.9
			c0.6,0.5,1.4,0.7,2.1,0.7c0.8,0.1,1.6-0.2,2.2-0.7c0.5-0.5,0.9-1.2,1.1-2c0.2-0.9,0.3-1.9,0.3-2.8v-3.8h-3.5v-4.5h10.2v18.7h-4.8
			l-0.4-3.3c-0.5,1.1-1.2,2-2.2,2.7C65.9,93.7,64.5,94.1,63.1,94z"/>
		<path class="st3" d="M77.7,93.4l7-36.4H93l7,36.4h-6.9l-1.3-8h-5.8l-1.4,8H77.7z M86.7,80.9h4.4l-2.2-14.7L86.7,80.9z"/>
		<path class="st3" d="M103.5,93.4l0.6-36.4h7.8l4.5,22.9l4.8-22.9h7.6l0.6,36.4h-5.4l-0.6-24.6l-4.6,24.6h-4.6l-4.8-24.8L109,93.4
			H103.5z"/>
		<path class="st3" d="M134.5,93.4V57.1h15.8v5.1h-8.4v9.7h6.5V77h-6.5v11.4h8.5v5L134.5,93.4z"/>
		<path class="st3" d="M88.8,139.8c-2.2,0.1-4.4-0.4-6.3-1.4c-1.5-0.9-2.7-2.4-3.3-4.1c-0.7-2.1-1.1-4.2-1-6.4v-13.6
			c-0.1-2.2,0.3-4.3,1-6.4c0.6-1.7,1.8-3.1,3.3-4c1.9-1,4.1-1.5,6.3-1.4c2.2-0.1,4.4,0.4,6.4,1.4c1.5,0.9,2.7,2.3,3.4,4
			c0.7,2,1.1,4.2,1,6.3v13.6c0.1,2.2-0.3,4.3-1,6.4c-0.6,1.7-1.8,3.2-3.4,4.1C93.2,139.4,91,139.9,88.8,139.8z M88.8,134.5
			c0.8,0.1,1.5-0.2,2.1-0.6c0.5-0.5,0.8-1.1,0.9-1.8c0.2-0.8,0.2-1.6,0.2-2.4v-17.2c0-0.8-0.1-1.6-0.2-2.3c-0.1-0.7-0.4-1.3-0.9-1.7
			c-0.6-0.5-1.3-0.7-2.1-0.7c-0.7,0-1.4,0.2-2,0.7c-0.5,0.5-0.8,1.1-0.9,1.7c-0.2,0.8-0.2,1.5-0.2,2.3v17.2c0,0.8,0.1,1.6,0.2,2.4
			c0.1,0.7,0.4,1.3,0.9,1.8C87.3,134.3,88,134.5,88.8,134.5L88.8,134.5z"/>
		<path class="st3" d="M104.5,139.3V103h5.2l8.1,19v-19h6.1v36.4h-4.9l-8.1-20.1v20.1L104.5,139.3z"/>
		<circle class="st3" cx="58.9" cy="131.1" r="12.4"/>
		<circle class="st3" cx="155.2" cy="51.1" r="12.6"/>
		<circle class="st3" cx="150.1" cy="113.2" r="6.3"/>
		<path class="st3" d="M85.4,48c0-1.7-1.4-3.1-3.1-3.1c-1.7,0-3.1,1.4-3.1,3.1c0,1.7,1.4,3.1,3.1,3.1l0,0C84,51.1,85.4,49.7,85.4,48
			z"/>
		<path class="st3" d="M94.8,48c0-1.7-1.4-3.1-3.1-3.1c-1.7,0-3.1,1.4-3.1,3.1c0,1.7,1.4,3.1,3.1,3.1l0,0
			C93.4,51.1,94.8,49.7,94.8,48z"/>
		<path class="st3" d="M104.2,48c0-1.7-1.4-3.1-3.2-3.1c-1.7,0-3.1,1.4-3.1,3.2c0,1.7,1.4,3.1,3.1,3.1
			C102.7,51.2,104.1,49.8,104.2,48C104.2,48,104.2,48,104.2,48z"/>
		<path class="st3" d="M78.3,214H57.5c-2.2,0-3.9-1.7-3.9-3.9c0,0,0-0.1,0-0.1l0,0c0-2.2,1.7-3.9,3.9-3.9c0,0,0,0,0,0h20.9
			c2.2,0,3.9,1.8,3.9,3.9l0,0C82.3,212.2,80.6,214,78.3,214C78.4,214,78.4,214,78.3,214z"/>
		<path class="st3" d="M160,130h-20.9c-2.2,0-3.9-1.8-3.9-3.9c0,0,0-0.1,0-0.1l0,0c0-2.2,1.8-3.9,3.9-3.9H160c2.2,0,3.9,1.8,3.9,3.9
			l0,0C163.9,128.2,162.2,129.9,160,130C160.1,130,160,130,160,130z"/>
	</g>
</g>
<g id="freepik--Floor--inject-87">
	<line class="st3" x1="49.4" y1="440.4" x2="465.8" y2="440.4"/>
</g>
<g id="freepik--Plant--inject-87">
	<path class="st4" d="M87.3,311.5L87.3,311.5c0,0,0-0.1,0-0.1c-0.1,0-0.1,0-0.1,0.1c0,0,0,0,0,0c-2.9,6.9-5.2,14.1-6.8,21.4
		c-1.7,7.3-3,14.7-3.8,22.2l-0.5,5.6c-0.1,0.9-0.2,1.9-0.2,2.8l-0.2,2.8c-0.1,1.9-0.2,3.7-0.2,5.6v5.6l0.1,2.8
		c0,0.9,0.1,1.9,0.2,2.8c0.1,1.9,0.3,3.7,0.4,5.6c0.4,3.7,0.9,7.4,1.5,11.1c0,0,0,0.1,0.1,0.1c0,0,0,0,0,0c0,0,0.1,0,0.1-0.1
		c0,0,0,0,0,0l0,0c0-1.9-0.1-3.7-0.1-5.6s-0.2-3.7-0.2-5.6s0-3.7-0.1-5.6v-2.8v-2.8v-5.6l0.2-5.6l0.1-2.8c0-0.9,0.1-1.9,0.2-2.8
		l0.3-5.6c0.7-7.4,1.7-14.8,3.2-22.1C82.6,325.7,84.6,318.5,87.3,311.5z"/>
	<path class="st4" d="M88.1,340.7c0,0,0-0.1-0.1-0.1c-0.1,0-0.1,0-0.1,0.1c0,0,0,0,0,0c-1.6,4.6-2.9,9.4-4,14.2
		c-1,4.8-1.8,9.7-2.3,14.5c-0.5,4.9-1,9.8-1.1,14.7c-0.1,4.9,0.1,9.8,0.6,14.7c0,0.1,0,0.1,0.1,0.1c0.1,0,0.1,0,0.1-0.1
		c0.6-4.9,0.9-9.8,1.2-14.6s0.4-9.8,0.7-14.6c0.3-4.9,0.9-9.7,1.7-14.5C85.7,350.2,86.7,345.4,88.1,340.7z"/>
	<path class="st4" d="M104.2,351c0,0-0.1,0-0.1,0c0,0,0,0,0,0c-4,2.6-7.7,5.8-10.8,9.4c-1.6,1.8-3,3.8-4.2,5.9l-0.9,1.6l-0.7,1.7
		c-0.2,0.6-0.4,1.1-0.6,1.7c-0.2,0.6-0.4,1.1-0.5,1.7c-1.2,4.7-2,9.4-2.2,14.3c-0.2,4.8-0.1,9.6,0.5,14.4c0,0,0.1,0.1,0.1,0.1
		c0,0,0.1,0,0.1-0.1c0,0,0,0,0,0l1.2-14.2c0.3-4.7,0.9-9.4,1.8-14c0.1-0.6,0.3-1.1,0.4-1.7c0.1-0.6,0.3-1.1,0.5-1.7l0.6-1.6l0.7-1.5
		c1.1-2.1,2.4-4.1,3.9-5.9c2.9-3.8,6.3-7.1,10.2-9.9l0,0C104.2,351.1,104.3,351.1,104.2,351C104.2,351,104.2,351,104.2,351z"/>
	<path class="st4" d="M96.4,369.2c-2.1,1.5-3.8,3.6-4.9,5.9c-1.2,2.3-2.1,4.7-2.8,7.2c-0.2,0.6-0.3,1.2-0.5,1.9l-0.4,1.9
		c-0.2,1.3-0.4,2.5-0.5,3.8c0,1.3-0.1,2.6,0,3.9c0.1,1.3,0.3,2.6,0.5,3.8c0,0,0,0.1,0.1,0.1c0.1,0,0.1,0,0.1-0.1c0,0,0,0,0,0
		c0.3-1.2,0.5-2.5,0.7-3.8c0.2-1.2,0.4-2.5,0.6-3.7s0.3-2.5,0.4-3.7s0.3-2.5,0.5-3.7c0.4-2.5,1.1-4.9,2.1-7.2
		c0.9-2.4,2.3-4.5,4.1-6.2l0,0C96.5,369.3,96.5,369.3,96.4,369.2C96.5,369.3,96.5,369.3,96.4,369.2
		C96.5,369.2,96.4,369.2,96.4,369.2z"/>
	<path class="st4" d="M73.7,383.5c-0.5-6.3-1.6-12.6-2.6-18.8S69.1,352.2,68,346s-2.4-12.4-3.8-18.6c0-0.1-0.1-0.1-0.1-0.1
		c0,0,0,0,0,0c0,0-0.1,0.1-0.1,0.1c0,0,0,0,0,0c1.1,6.2,2,12.5,3,18.7s1.8,12.5,2.6,18.7s1.4,12.5,2.2,18.8l2.3,18.8
		c0,0,0,0.1,0.1,0.1c0.1,0,0.1,0,0.1-0.1c0.1-1.6,0.1-3.2,0.1-4.8s-0.1-3.2-0.1-4.8C74.2,389.8,74,386.6,73.7,383.5z"/>
	<path class="st4" d="M70,383.4c-0.3-2.5-0.8-5-1.3-7.5l-0.9-3.7c-0.3-1.2-0.6-2.5-0.9-3.7c-1.3-4.9-2.9-9.7-4.8-14.4l-0.8-1.7
		l-0.8-1.7c-0.5-1.1-1.2-2.2-1.8-3.3c-1.2-2.2-2.8-4.2-4.6-6c0,0-0.1,0-0.1,0c0,0,0,0.1,0,0.1l0,0c1.7,1.9,3.1,3.9,4.2,6.2
		c0.5,1.1,1.1,2.2,1.6,3.4l0.7,1.7l0.7,1.8c1.7,4.7,3.1,9.5,4.2,14.4c0.6,2.4,1,4.9,1.4,7.4l0.6,3.7c0.2,1.2,0.5,2.5,0.7,3.7
		c0.4,2.5,0.8,4.9,1.3,7.4s0.8,5,1.3,7.4c0,0,0.1,0.1,0.1,0.1c0.1,0,0.1,0,0.1-0.1l0,0c0-2.5-0.1-5-0.2-7.6
		C70.5,388.4,70.2,385.9,70,383.4z"/>
	<path class="st4" d="M64.7,383.7c-1.2-3.3-2.5-6.5-4-9.7c-1.5-3.2-3.2-6.2-5-9.2c0,0-0.1,0-0.1,0c0,0,0,0.1,0,0.1
		c1.6,3.1,3.1,6.2,4.3,9.5c1.3,3.2,2.4,6.5,3.4,9.8s1.7,6.7,2.6,10s1.7,6.7,2.7,10.1c0,0.1,0,0.1,0.1,0.1c0.1,0,0.1,0,0.1-0.1
		c0-3.5-0.3-7-1-10.5C67,390.4,66,387,64.7,383.7z"/>
	<path class="st4" d="M64.5,394.7c-0.6-2.1-1.6-4-2.8-5.8c-1.1-1.8-2.5-3.5-4-5c-0.8-0.7-1.7-1.4-2.6-1.9c-0.9-0.6-1.9-1-2.9-1.3
		c0,0-0.1,0-0.1,0.1c0,0,0,0.1,0,0.1l0,0c1.9,0.9,3.5,2.2,4.9,3.7c1.3,1.5,2.5,3.3,3.4,5.1c1,1.8,1.5,3.8,2.3,5.7
		c0.4,1,0.7,1.9,1.2,2.9c0.4,1,0.8,2,1.3,2.9l0,0c0,0,0,0,0.1,0c0.1,0,0.1,0,0.1-0.1c0,0,0,0,0,0c0-1.1,0-2.2-0.1-3.2
		C65,396.8,64.8,395.8,64.5,394.7z"/>
	<path class="st0" d="M64.9,336.4c-6.4-1.8-11.3-7-12.7-13.5c-2.4-11.1,5.3-6.4-1.6-23.9s-5.3-21.5-2.9-26.5s3.7-3.5,5.8,3.2
		s9.8,17,12.7,36.3S64.9,336.4,64.9,336.4z"/>
	<path class="st0" d="M85.3,317.6c0,0-6.9-2.4-7.2-15.4s5-10.3,5.8-26.5s1.8-27.6,4.8-27.8s10.6,8,13.3,26s-3.4,30-8.8,35.3
		S85.3,317.6,85.3,317.6z"/>
	<path class="st0" d="M61.2,352.1c0,0-1.6-9.5-4.8-14s-10.1-8.5-14.6-17.2s-9.5-13-9.3-0.5s5.8,18.8,12.7,23.1
		S61.2,352.1,61.2,352.1z"/>
	<path class="st0" d="M58.3,368.5c0,0-6.4-12.2-15.6-21.2s-16.7-13.5-14.1-9s5.8,4.2,10.3,12.2s3.2,13.8,9.5,18.3
		S58.3,368.5,58.3,368.5z"/>
	<path class="st0" d="M57.5,384.1c-0.3-0.8-0.5-6.6-9.5-11.4s-17.5-2.9-16.4-0.5s6.6,6.4,12.2,8.8S57.5,384.1,57.5,384.1z"/>
	<path class="st0" d="M84.8,352.6c0,0-4-5-1.8-15.6s6.9-8,12.2-13.5s4.2-6.4,9.6-12.2s10.1-9,12.2-6.6s-1.1,9.8-4.2,14.1
		s-8.2,6.3-10.6,11.7s-1.3,13.8-7.4,17.8S84.8,352.6,84.8,352.6z"/>
	<path class="st0" d="M98.1,355.5c0,0,9.5-10.9,16.4-18.8s9.5-14,9.8-8.7s2.4,9.5-3.2,16.4S98.1,355.5,98.1,355.5z"/>
	<path class="st0" d="M93,373c0,0-0.3-4.2,14.8-14s21.5-11.7,19.9-7.7s-8.2,8-15.4,15.1S93,373,93,373z"/>
	<path class="st3" d="M65.5,335.3c0,0-3.5-19-7.3-32.5S52.2,281,52.2,281"/>
	<path class="st3" d="M84.7,317.8c0,0,6.4-20.6,8.6-33.1S93,263,92,257.4"/>
	<path class="st3" d="M60.4,351.7c-2.9-4.9-6.1-9.6-9.8-13.9c-5.8-6.9-10.3-10.6-13-17.2"/>
	<path class="st3" d="M84.8,352.6c0,0,2.1-12.7,7.2-19.4s15.1-17,19.1-23.6"/>
	<path class="st3" d="M56.9,383.9c0,0-8.9-5.8-15.3-9"/>
	<path class="st5" d="M86.2,440.1H67.8c0,0-16.7-37-9.2-46.1c5.8-7.1,31-7.1,36.9,0C102.9,403,86.2,440.1,86.2,440.1z"/>
</g>
<g id="freepik--arcade-machine--inject-87">
	<path class="st5" d="M184.1,248.5l30.5-20.3l39-112.2l-12.9-50.5c-0.4-1.8,4.9-3.3,6.6-2.6l50.9,22.6v354.8h-91.5V279.4
		L184.1,248.5z"/>
	<path class="st6" d="M187.6,248.5l30.5-20.3l39-112.2l-12.9-50.5c-0.3-1.2,0.4-2.4,1.6-2.7c0.5-0.1,0.9-0.1,1.4,0.1l54.4,22.6
		v354.8h-91.4V279.4L187.6,248.5z"/>
	<polygon class="st7" points="261.2,113.3 277.5,116.7 373.7,116.7 374.6,113.3 	"/>
	<polygon class="st5" points="222.1,228.9 277.5,116.7 378.9,116.7 334.7,228.2 	"/>
	<polygon class="st8" points="242.1,210.4 282.1,129.1 355.6,129.1 323.6,209.9 	"/>
	<polygon class="st9" points="255.7,182.8 242.1,210.4 323.6,209.9 334.3,182.8 	"/>
	<polygon class="st10" points="347.2,150.2 355.6,129.1 282.1,129.1 271.8,150.2 	"/>
	<path class="st4" d="M293,165.7h24.3c0.9,0,1.6,0.7,1.6,1.6v0.5c0,0.9-0.7,1.6-1.6,1.6H293c-0.9,0-1.6-0.7-1.6-1.6v-0.5
		C291.4,166.4,292.1,165.7,293,165.7z"/>
	<path class="st4" d="M286.8,143.6l-10.8,22c-0.4,0.9-1.5,1.3-2.5,0.9l0,0c-0.9-0.4-1.2-1.5-0.8-2.4c0,0,0,0,0-0.1l10.8-22
		c0.4-0.9,1.5-1.3,2.5-0.9l0,0C286.9,141.6,287.3,142.7,286.8,143.6C286.8,143.6,286.8,143.6,286.8,143.6z"/>
	<path class="st4" d="M326.5,130.2l-18.9,36.4c-0.4,0.9-1.5,1.3-2.4,0.9l0,0c-0.9-0.4-1.2-1.5-0.8-2.4c0,0,0,0,0,0l18.9-36.4
		c0.4-0.9,1.5-1.3,2.5-0.9l0,0C326.6,128.2,326.9,129.3,326.5,130.2C326.5,130.2,326.5,130.2,326.5,130.2z"/>
	<path class="st4" d="M333.5,165.9l-9,22.7c-0.4,0.9-1.4,1.4-2.4,1.1l0,0c-0.9-0.4-1.4-1.4-1-2.3c0,0,0,0,0-0.1l9-22.7
		c0.4-0.9,1.4-1.4,2.4-1.1l0,0C333.5,163.9,333.9,165,333.5,165.9C333.6,165.9,333.6,165.9,333.5,165.9z"/>
	<path class="st4" d="M277.7,157.8H302c0.9,0,1.6,0.7,1.6,1.6v0.5c0,0.9-0.7,1.6-1.6,1.6h-24.3c-0.9,0-1.6-0.7-1.6-1.6v-0.5
		C276.2,158.5,276.9,157.8,277.7,157.8z"/>
	<path class="st4" d="M303,175.2h24.3c0.9,0,1.6,0.7,1.6,1.6v0.5c0,0.9-0.7,1.6-1.6,1.6H303c-0.9,0-1.6-0.7-1.6-1.6v-0.5
		C301.5,175.9,302.2,175.2,303,175.2z"/>
	<path class="st0" d="M302.5,159.9c0-1.2-0.9-2.1-2.1-2.1s-2.1,0.9-2.1,2.1s0.9,2.1,2.1,2.1c0,0,0,0,0,0
		C301.5,162,302.4,161,302.5,159.9z"/>
	<path class="st0" d="M285.9,214.5c0-1.2-0.9-2.1-2.1-2.1s-2.1,0.9-2.1,2.1c0,1.2,0.9,2.1,2.1,2.1S285.9,215.6,285.9,214.5
		L285.9,214.5z"/>
	<path class="st0" d="M298.6,214.5c0-1.2-0.9-2.1-2.1-2.1s-2.1,0.9-2.1,2.1c0,1.2,0.9,2.1,2.1,2.1S298.6,215.6,298.6,214.5
		L298.6,214.5z"/>
	<path class="st0" d="M311.4,214.5c0-1.2-0.9-2.1-2.1-2.1s-2.1,0.9-2.1,2.1c0,1.2,0.9,2.1,2.1,2.1c0,0,0,0,0,0
		C310.4,216.6,311.4,215.6,311.4,214.5z"/>
	<path class="st11" d="M331.3,171.5c0-1.2-0.9-2.1-2.1-2.1s-2.1,0.9-2.1,2.1c0,1.2,0.9,2.1,2.1,2.1S331.3,172.7,331.3,171.5
		L331.3,171.5z"/>
	<path class="st0" d="M265.2,198.1c-0.6-0.9-2-0.9-3.2,0l-0.7,0.6l-0.4-0.6c-0.3-0.4-0.8-0.7-1.4-0.6c-0.7,0-1.3,0.2-1.8,0.6
		c-1.1,0.9-1.5,2.3-0.9,3.2l0.4,0.6l2.2,3.2l4.1-3.2l0.7-0.6c0.5-0.4,0.9-1,1.1-1.6C265.6,199.2,265.5,198.6,265.2,198.1z"/>
	<path class="st0" d="M275.9,198.1c-0.6-0.9-2-0.9-3.2,0l-0.7,0.6l-0.4-0.6c-0.3-0.4-0.8-0.7-1.4-0.6c-0.7,0-1.3,0.2-1.8,0.6
		c-1.1,0.9-1.5,2.3-0.9,3.2l0.4,0.6l2.2,3.2l4.1-3.2l0.7-0.6c0.5-0.4,0.9-1,1.1-1.6C276.2,199.2,276.2,198.6,275.9,198.1z"/>
	<line class="st12" x1="334" y1="123.9" x2="344.2" y2="123.9"/>
	<line class="st12" x1="289.1" y1="124.2" x2="298.3" y2="124.2"/>
	<polygon class="st6" points="222.1,228.9 334.7,228.2 304.2,248.5 191.3,249.1 	"/>
	<path class="st6" d="M300.3,236.4c0,1.3-2.1,2.4-4.8,2.4s-4.8-1.1-4.8-2.4s2.1-2.4,4.8-2.4S300.3,235.1,300.3,236.4z"/>
	<path class="st6" d="M283,239.1c0,1.3-2.1,2.4-4.8,2.4s-4.8-1.1-4.8-2.4s2.1-2.4,4.8-2.4S283,237.8,283,239.1z"/>
	<path class="st5" d="M315.2,234c0,1.3-2.1,2.4-4.8,2.4s-4.8-1.1-4.8-2.4s2.1-2.4,4.8-2.4S315.2,232.7,315.2,234z"/>
	<rect x="209.8" y="279.4" class="st5" width="113.4" height="161"/>
	<rect x="245.9" y="304.4" class="st9" width="41.2" height="58.5"/>
	<polygon class="st5" points="300.7,248.5 187.3,248.5 209.8,279.4 323.2,279.4 	"/>
	<polygon class="st6" points="248.5,67.5 359.9,67.5 374.6,113.3 261.2,113.3 	"/>
	<path class="st5" d="M300.7,248.5l30.5-20.3l39-112.2l-12.9-50.5c-0.5-1.8,4.8-3.3,6.5-2.6l46,20.6c2.9,1.2,4.8,4.1,4.8,7.3v349.5
		h-91.4V279.4L300.7,248.5z"/>
	<path class="st0" d="M418.2,90.8v349.5h-91.5V279.4l-22.6-30.9l30.5-20.3l0.3-0.9l2.4-6.8l36.1-103.9l0.2-0.7l-0.7-2.7l-6.3-24.7
		v-0.1l-5.9-23c-0.3-1.2,0.4-2.4,1.6-2.7c0.1,0,0.2-0.1,0.4-0.1l0,0c0.2,0,0.3,0,0.5,0c0.1,0,0.2,0,0.3,0.1c0.1,0,0.2,0,0.2,0.1
		l49.5,20.6C416.3,84.7,418.2,87.6,418.2,90.8z"/>
	<path class="st4" d="M376.9,251.5c-1.1,0.7-2.6,0.7-3.7-0.1l-33.7-21.9c-1.6-1-2.1-3.2-1-4.8c1-1.6,3.2-2.1,4.8-1l0,0l33.7,21.9
		c1.6,1,2.1,3.2,1,4.8c0,0,0,0,0,0C377.7,250.9,377.4,251.3,376.9,251.5z"/>
	<path class="st4" d="M418.3,188.2l-0.5-5.9c-0.2-1.9-1.9-3.3-3.8-3.1c-1.9,0.2-3.2,1.8-3.1,3.7l3.8,41.3c0.2,1.9,1.8,3.3,3.7,3.1
		V188.2z"/>
	<path class="st11" d="M418.3,213.4c-27-2.3-50.7,17.6-53.1,44.6c-2.3,27,17.6,50.7,44.6,53.1c2.8,0.2,5.7,0.2,8.5,0V213.4z"/>
	<path class="st4" d="M418.3,233.1l-39.4,23.8c-3.8,2.3-5,7.2-2.7,11c0,0,0,0,0,0l9.6,15.9c2.3,3.8,7.2,5,11,2.7c0,0,0,0,0,0
		l21.5-13L418.3,233.1z"/>
	<path class="st11" d="M418.3,176.4c-3.5-2.2-8.1-1.2-10.3,2.3c-2.2,3.5-1.2,8.1,2.3,10.3c2.4,1.5,5.4,1.6,7.9,0.1l0.1-0.1V176.4z"
		/>
	<path class="st11" d="M349.6,227.8c-0.5,2-1.7,3.6-3.4,4.7c-0.4,0.2-0.8,0.4-1.2,0.6c-3.4,1.3-7.1-0.1-9-3.1
		c-0.5-0.8-0.8-1.7-1-2.6l2.4-6.8c0.3-0.3,0.7-0.6,1.1-0.8c3.5-2.1,8.1-1,10.2,2.5C349.7,223.9,350,225.9,349.6,227.8L349.6,227.8z"
		/>
	<path class="st11" d="M400.5,263.7c1.8,3,0.9,6.9-2.2,8.8c-3,1.8-6.9,0.9-8.8-2.2c-1.8-3-0.9-6.9,2.2-8.8c0,0,0,0,0,0
		C394.7,259.8,398.6,260.7,400.5,263.7C400.5,263.7,400.5,263.7,400.5,263.7z"/>
	<path class="st4" d="M418.3,284.1l-9.8,5.9c-1.1,0.8-1.4,2.2-0.6,3.3c0.7,1,2,1.3,3.1,0.8l7.3-4.4V284.1z"/>
	<path class="st4" d="M358.4,344.3c-0.6,0.4-1.4,0.4-2.1,0l-18.9-12.2c-0.9-0.6-1.2-1.8-0.6-2.7s1.8-1.2,2.7-0.6l18.9,12.2
		c0.9,0.6,1.1,1.8,0.6,2.7C358.8,343.9,358.6,344.2,358.4,344.3z"/>
	<path class="st4" d="M382.4,330.5c-0.2,0.2-0.5,0.3-0.8,0.3c-1.1,0.1-2-0.7-2.1-1.7c0,0,0,0,0,0l-2.1-23.1c-0.1-1.1,0.6-2,1.7-2.2
		c1.1-0.1,2,0.6,2.2,1.7c0,0.1,0,0.1,0,0.2l2.1,23C383.4,329.4,383,330.1,382.4,330.5z"/>
	<circle class="st11" cx="379.3" cy="350.2" r="27.4"/>
	<path class="st4" d="M361.5,346l21-12.7c3.3-2,7.5-0.9,9.5,2.3l2.9,4.7c2,3.3,0.9,7.5-2.3,9.5l-21,12.7c-3.3,2-7.5,0.9-9.5-2.3
		l-2.9-4.7C357.2,352.3,358.3,348,361.5,346z"/>
	<path class="st11" d="M382.8,303.7c-1.2-2-3.8-2.6-5.7-1.4c-2,1.2-2.6,3.8-1.4,5.7c1.2,2,3.8,2.6,5.7,1.4c0,0,0,0,0,0
		C383.4,308.2,384,305.7,382.8,303.7C382.8,303.7,382.8,303.7,382.8,303.7z"/>
	<path class="st11" d="M342.6,328c-1.2-2-3.7-2.6-5.7-1.4s-2.6,3.7-1.4,5.7c1.2,2,3.7,2.6,5.7,1.4C343.1,332.5,343.8,330,342.6,328
		C342.6,328,342.6,328,342.6,328z"/>
	<path class="st11" d="M389.1,340.5c1,1.7,0.5,3.9-1.2,4.9c-1.7,1-3.9,0.5-4.9-1.2c-1-1.7-0.5-3.9,1.2-4.9c0,0,0,0,0,0
		C385.9,338.3,388.1,338.9,389.1,340.5z"/>
	<path class="st11" d="M371.5,351.1c1,1.7,0.5,3.9-1.2,4.9c-1.7,1-3.9,0.5-4.9-1.2c-1-1.7-0.5-3.9,1.2-4.9c0,0,0,0,0,0
		C368.3,348.9,370.5,349.5,371.5,351.1z"/>
	<path class="st4" d="M378.5,366l19-11.5c0.6-0.3,1.3-0.2,1.6,0.4l0.2,0.3c0.3,0.6,0.2,1.3-0.4,1.6l-19,11.5
		c-0.6,0.3-1.3,0.2-1.6-0.4l-0.2-0.3C377.8,367.1,377.9,366.4,378.5,366z"/>
	<path class="st3" d="M304.2,248.5l30.5-20.3l39-112.2l-12.9-50.5c-0.3-1.2,0.4-2.4,1.6-2.7c0.5-0.1,0.9-0.1,1.4,0.1l49.5,20.6
		c2.9,1.2,4.8,4.1,4.8,7.3v349.5h-91.4V279.4L304.2,248.5z"/>
	<path class="st4" d="M418.2,107.4v32.9l-3.5,4.3l-32.5,39.6c0,0,0,0-0.1,0.1l-7.3,8.9c-3.9,4.2-10.5,4.5-14.7,0.6
		c-3.9-3.6-4.5-9.5-1.4-13.8l7.3-9l0.1-0.1l48.6-59.2L418.2,107.4z"/>
	<path class="st11" d="M366.7,197c-5.7,0-10.4-4.7-10.4-10.4c0-2.4,0.8-4.7,2.4-6.6l7.3-9c3.7-4.5,10.2-5.1,14.7-1.4
		c4.5,3.7,5.1,10.2,1.4,14.7l0,0l-7.4,9C372.8,195.6,369.9,197,366.7,197z"/>
	<path class="st4" d="M418.2,374.7v29.5l-3.5,3.5l-9.4,9.4c-0.1,0.1-0.1,0.1-0.2,0.2l-11.9,11.8c-4.1,4.1-10.7,4.1-14.7,0
		c-4.1-4.1-4.1-10.7,0-14.7l11.8-11.8c0.1-0.1,0.3-0.3,0.4-0.4l24-24L418.2,374.7z"/>
	<path class="st11" d="M385.9,432.2c-5.8,0-10.4-4.7-10.4-10.4c0-2.8,1.1-5.4,3-7.4l11.8-11.8c4.1-4.1,10.7-4.1,14.7,0
		s4.1,10.7,0,14.7l-11.8,11.8C391.3,431.1,388.6,432.2,385.9,432.2z"/>
	<rect x="251.2" y="340" class="st13" width="10" height="14.7"/>
	<rect x="268.2" y="340" class="st13" width="10" height="14.7"/>
	<rect x="251.2" y="314.9" class="st14" width="10" height="14.7"/>
	<rect x="268.2" y="314.9" class="st14" width="10" height="14.7"/>
	<polygon class="st0" points="278.2,314.9 274.2,329.5 264.9,329.5 268.2,314.9 	"/>
	<polygon class="st0" points="260.6,314.9 256.6,329.5 247.2,329.5 250.5,314.9 	"/>
	<g>
		<path class="st11" d="M268.3,91.7v5.7h-3.1V86l3.6,0c1,3.4,3.2,6.9,3.2,6.9V86h3.1v11.4h-3.2C271.9,97.4,269.7,94.4,268.3,91.7z"
			/>
		<path class="st11" d="M280.7,86h3.2l4.1,11.4h-3.2l-0.4-1c-0.1-0.3-0.2-0.5-0.4-0.7c-0.4-0.4-1-0.5-1.6-0.6h-0.1
			c-0.6,0-1.2,0.1-1.7,0.5c-0.2,0.2-0.3,0.4-0.5,0.7l-0.4,1.1h-3.2L280.7,86z M278.6,85.1c0.1-1.6,1-2.6,2.3-2.6
			c0.5,0,0.9,0.2,1.4,0.3c0.4,0.1,0.8,0.3,1.1,0.3c0.4,0,0.5-0.3,0.6-0.6l0-0.1h1.9v0.2c0,1.4-0.9,2.5-2.2,2.5
			c-0.5,0-0.9-0.1-1.3-0.3c-0.4-0.1-0.8-0.3-1.2-0.3c-0.3,0-0.5,0.2-0.6,0.6l0,0.1h-1.9L278.6,85.1z M283.2,93l-1-3.1l-1,3.1H283.2z
			"/>
		<path class="st11" d="M294.2,85.6c8.1,0,7.9,12.2,0,12.2C286.4,97.8,286.2,85.6,294.2,85.6z M294.2,94.6L294.2,94.6
			c2.1,0,3.1-1,3.1-3c0-1.9-1-2.9-3.1-2.9c-2,0-3.1,1-3.1,2.9C291.2,93.6,292.1,94.6,294.2,94.6z"/>
		<path class="st11" d="M306.1,91.7c0-4.1,3.9-7.4,8.4-5.4v3.3c-2.2-1.8-5.3-0.8-5.3,2.1c0,3,3.1,3.8,5.3,2.2v3.2
			C310,99.1,306.1,95.6,306.1,91.7z"/>
		<path class="st11" d="M316.4,86h3.1v4.3h3.2V86h3.1v11.4h-3.1v-4.6h-3.2v4.6h-3.1V86z"/>
		<path class="st11" d="M327.8,93.6V86h3v7.6c0,0.9,0.4,1.2,1.3,1.2h0.1c0.9,0,1.3-0.4,1.3-1.2V86h3v7.6c0,1.4-0.3,4.2-4.3,4.2H332
			C328.1,97.7,327.8,94.9,327.8,93.6z"/>
		<path class="st11" d="M340.1,88.7h-2.2V86h7.5v2.7h-2.2v8.8h-3.1V88.7z"/>
		<path class="st11" d="M346.8,86h6.3v2.7h-2.7c-0.5,0-0.7,0.3-0.7,0.8c0,0.6,0.2,0.8,0.7,0.8h2.5V93h-2.5c-0.5,0-0.8,0.3-0.8,0.9
			c0,0.6,0.2,0.9,0.7,0.9h2.7v2.7h-6.3V86z"/>
	</g>
</g>
<g id="freepik--Character--inject-87">
	<path class="st15" d="M203.8,425.8c0,0,10.5,7,15.8,7.5s8.8,1.7,8.1,4.1s-5.1,5.1-13.7,6s-13-0.6-19.2-0.9s-11.6,2.6-15.2-0.6
		s-3.2-5.6-3-7.7s4.7-1.9,12-4.3S203.8,425.8,203.8,425.8z"/>
	<path class="st15" d="M227.7,437.3c0.2-0.6,0-1.3-0.4-1.8c-3.1,2.7-10.6,6.2-15.6,6c-6-0.2-11.5-1.7-22.9-1.5l-10.7,0.2
		c0.4,0.5,0.9,1,1.5,1.5c3.6,3.2,9,0.4,15.2,0.6s10.7,1.7,19.2,0.9S227.1,439.7,227.7,437.3z"/>
	<path class="st7" d="M197.7,315.5c0,0,16.4,39.8,15.4,46.3s-11.7,33.7-12.7,38.3s0.6,13.3,0.6,13.3c1.7,0.6,2.9,2.2,3.1,4
		c0.3,3.1,1.5,9.3,1.5,9.3c-4,2.9-8.3,5.1-13,6.5c-5.1,1.3-10.4,2.2-15.7,2.5c-1.2,0-2.5-4.9-3.1-8.3s5.2-10.8,7.4-15.1
		s7.7-24.4,11.4-31.2s9-26.9,8.3-34.6s-6.5-23.2-6.5-28.1S197.7,312.4,197.7,315.5z"/>
	<path class="st3" d="M176.2,424.1c0,0,3.9,1.9,11.1,0.4s10.5-4.9,6.6-4.7c-3,0.3-5.9,1-8.8,1.9"/>
	<path class="st15" d="M179.2,430.8c0,0,11.3,7.1,14.5,7.3s5.3,2.8,4.3,6.2s-9.2,5.1-21.4,5.3s-25.4-0.9-28.9-1.5s-6.6-0.6-6.8-2.8
		c-0.1-1.9-0.1-3.8,0-5.8c0,0,5.3-1.5,10-3.4s18.2-4.5,20.5-5.1S179.2,430.8,179.2,430.8z"/>
	<path class="st15" d="M175.6,447.7c-12.3,0.2-29.4-3.1-34.7-3.8c0,0.5,0,1,0.1,1.4c0.2,2.1,3.4,2.1,6.8,2.8s16.7,1.7,28.9,1.5
		s20.3-1.9,21.4-5.3c0.5-1.3,0.4-2.7-0.3-3.9c-0.6,1-1.2,1.9-1.9,2.8C193.3,446.6,190.3,447.5,175.6,447.7z"/>
	<path class="st7" d="M147.7,308.2c0,0,9.6,23.5,9.9,30.6s2.5,17.3,4.6,19.1l2.2,1.9c0,0-6.2,4.3-5.9,9.9s-6.2,21.9-9.9,29.3
		s-8.6,28.4-9.3,32.1s0.3,11.1,0.3,11.1s7.4,0.9,11.4,1.5s9,0.9,9,0.9l2.5-4.9l2.8,5.2c0,0,7.1-2.2,10.5-5.2c2.1-1.9,4.1-4,5.9-6.2
		l-4.9-7.1c0,0,25.3-56.8,26.8-64.5s0.3-16.4,0.3-22.5s-7.7-35.5-7.7-35.5L147.7,308.2z"/>
	<path class="st3" d="M192.4,326.4c0,0-7.1,1.5-13,3.4c-4.6,1.3-9.4,2.1-14.2,2.5l1.5,6.8c0,0,8.6,0.6,14.8-0.6s14.8-3.4,14.8-3.4
		l-1.9-6.8"/>
	<path class="st3" d="M168.4,341.6c0,0,3.4,11.1,3.7,12.4s-2.5,5.9-0.9,7.4s13,2.2,18.5,1.5s10.5-3.1,10.8-6.2s-3.4-16.1-3.4-16.1"
		/>
	<line class="st3" x1="175.4" y1="314.1" x2="177.9" y2="326.1"/>
	<path class="st3" d="M181,365.4l-15.1,45.1c0,0-11.4,9.6-12,11.7s7.4,10.8,7.4,10.8"/>
	<path class="st3" d="M146.7,416.6c0,0,29.3-6.8,35.8-17"/>
	<path class="st15" d="M199.3,144c0,0-3.7,2.6-2.9,5.9s6.6,7,4.4,8.4s-4,2.2-4,3.3s-4,15-7.3,15.4s-11.4-2.2-11.4-2.2
		c-3,3-5.1,6.8-5.9,11l-25.6-7c1.9-3.8,2.1-8.2,0.4-12.1c-1.7-3.6-3.6-7-5.9-10.3c0,0,10.3-23.4,29.7-28.2S199.3,144,199.3,144z"/>
	<path class="st3" d="M193.9,165c0,0-6.8-1-7.2-5.4"/>
	<line class="st3" x1="188.3" y1="158.8" x2="183.9" y2="161.2"/>
	<path class="st5" d="M167.8,165.4c0,0,5.9,7.8,10.3,9.3c0,0-3.7,4.2-4.3,5.6C173.8,180.3,168.4,171.7,167.8,165.4z"/>
	<path class="st15" d="M138.8,300.5c0,0-0.3,8.4,2.4,9.8s6.4,4.4,28.7,2.4s31-7.4,32.4-9.8s0.7-8.8,0.7-8.8s-19.9,5.7-36.8,5.7
		S138.8,300.5,138.8,300.5z"/>
	<path class="st15" d="M247.9,226.7l2.9,7.7c-0.8,1.2-1.8,2.2-3,3c-2.4,2-6.4,3.8-9.6,2c-2-1.1-3.5-2.8-4.4-4.9c0,0,4.9-7,7-8.1
		S247.9,226.7,247.9,226.7z"/>
	<line class="st16" x1="245.9" y1="230.2" x2="252.6" y2="243.4"/>
	<path class="st15" d="M250.4,226.7c0,0,4.6,2.6,3.9,4.5s-4,4.5-6.7,4.9s-3.4-2.1-2.1-2.4S250.1,229.1,250.4,226.7z"/>
	<path class="st15" d="M253.8,232.3c0,0,1.8,2.1,1,3.7s-5.8,4-7.5,3.4s0.2-3.4,0.2-3.4S252.6,233.2,253.8,232.3z"/>
	<path class="st15" d="M253.7,237.1c0.3,1.1-0.1,2.3-0.9,3.1c-1.4,1.3-5.8,2.2-6.8,1.2s1.2-2,1.2-2
		C249.5,238.8,251.7,238,253.7,237.1z"/>
	<path class="st15" d="M250.4,226.7c-0.6-3.3-3.7-5.5-7-5c-3.3,0.6-5.5,3.7-5,7c0.6,3.3,3.7,5.5,7,5c0,0,0,0,0,0
		C248.7,233.1,250.9,230,250.4,226.7z"/>
	<path class="st15" d="M229.7,230.1c0,0,6.5-7.7,6.9-9.5s4.4-2.5,5.3-3s6.7-4.9,7-2.9s0.1,4.8-1.9,6.5s-6.1,2.1-6.1,2.1
		s1.8,4.5,0.8,6.7s-7.2,6.1-7.2,6.1L229.7,230.1z"/>
	<path class="st15" d="M219.6,241.2c0,0-11.7,4.2-16.4,4.6s-17.5-2.6-17.5-2.6l0.9-10.9v-5.1c4.4,2.4,9,4.5,13.7,6.2
		C208,236.3,219.6,241.2,219.6,241.2z"/>
	<path class="st6" d="M128,212.5c0,0,7.8,29.7,8.8,38.1s-4.4,47.2-1,50.3s17.5,7.4,36.8,4.7s30-7.1,30.4-11.5s-5.1-24.6-7.8-35.1
		s-3.4-29.7-4.7-42.5s-1-18.9-5.1-23.3s-7.1-5.4-11.1-5.7s-14.8,1-22.9,7.4s-13.5,14.2-16.9,15.9C132.4,211.8,130.2,212.4,128,212.5
		z"/>
	<path class="st15" d="M180,186.5c0,0-4.7-2-7.8-3.4s-23.9-6.1-27.3-6.7s-11.5-1.4-13.5,1.4s-2.7,8.4-2.7,8.4s-9.8,11.8-5.4,21.2
		s7.8,14.8,12.5,13.1s10.8-8.1,20.9-19.6s21.6-11.5,21.6-11.5S183.4,189.5,180,186.5z"/>
	<path class="st6" d="M172.7,190.3c0,0,9.1-2.7,15.6,4.2s20.2,19.9,22.1,21.3s7.9,5,7.9,5s6.9,2.8,12.6,5s26.4,13.2,28.5,13.6
		s2.9,1.3,7.4-0.4s10.7-3.9,11.8-3.4s8.1,3.9,9.1,4.1s8.7,1.1,8.2,2.2c-0.8,1.2-2,2-3.4,2.2c-1.3,0.2-6.2-0.1-9.5,0.7
		s-5.5,4.5-12.1,5.5s-18.4-2.4-18.4-2.4s-23.9-2.4-35.1-4.5s-41.8-18.2-44.3-18.8s-9.2-2.1-9.2-2.1"/>
	<path class="st3" d="M160,232.3c8.5,0.1,21.2-4.4,21.2-4.4s-4.4,7.1-11,10.8"/>
	<path class="st15" d="M296,242.1c0.5-1.1-7.1-2-8.2-2.2s-8-3.6-9.1-4.1s-7.2,1.7-11.8,3.4s-5.4,0.8-7.4,0.4
		c-1.8-0.3-16.8-8.2-24.9-12c0.8,2.9,1.4,6.5,0.3,9.4c-1.3,3.3-3.5,6.2-6.3,8.3c11.2,1.5,23.9,2.8,23.9,2.8s11.7,3.4,18.4,2.5
		s8.9-4.7,12.1-5.5s8.1-0.5,9.5-0.7C294,244.1,295.2,243.3,296,242.1z"/>
	<path class="st5" d="M161.5,158.3l3.9,12.9c0,0-6,0.7-20.2-4.2s-18.6-22-15.7-33.2s15.4-28.6,34.5-30s31.9,15.4,35.8,22.7
		c3.9,7.3,3.9,16.1,2.5,18.2c-1.6,2-3.4,3.9-5.3,5.6l-4.2-6.3c0,0-1.4,6.6-3.2,7.3c-1.4,0.5-2.8,0.8-4.2,1.1l-5-7.3l0.4,7.7
		c-2.2,0.9-4.3,2-6.4,3.1c-1.4,1-7.4,4.5-7.4,4.5C164.8,160.7,162.7,159.9,161.5,158.3z"/>
</g>
</svg>
