<svg width="250" height="250" viewBox="0 0 250 250" fill="none" xmlns="http://www.w3.org/2000/svg">
<path d="M209.6 199.86C209.561 199.87 209.52 199.87 209.48 199.86L206.125 198.575C206.078 198.557 206.036 198.528 206.004 198.489C205.972 198.451 205.95 198.404 205.94 198.355C205.915 198.26 203.81 188.68 211.405 176.82C216.825 168.36 224.515 163.32 228.905 165.32C229.745 165.67 230.48 166.233 231.038 166.952C231.595 167.672 231.956 168.524 232.085 169.425C232.181 170.463 232.012 171.508 231.593 172.462C231.174 173.416 230.519 174.249 229.69 174.88C229.3 175.2 228.69 175.625 227.935 176.17C223.215 179.52 212.16 187.365 209.865 199.62C209.857 199.663 209.84 199.704 209.815 199.74C209.79 199.777 209.758 199.807 209.72 199.83C209.683 199.848 209.642 199.859 209.6 199.86ZM206.5 198.035L209.37 199.14C211.87 186.845 222.87 179.015 227.615 175.64C228.37 175.105 228.965 174.68 229.34 174.375C230.081 173.81 230.668 173.067 231.045 172.215C231.423 171.362 231.579 170.429 231.5 169.5C231.387 168.701 231.066 167.947 230.568 167.312C230.07 166.677 229.414 166.185 228.665 165.885C224.53 163.985 217.165 168.93 211.9 177.15C205 187.935 206.255 196.755 206.5 198.035Z" fill="#E20046"/>
<path d="M207.695 199.13H207.655C207.575 199.121 207.501 199.081 207.449 199.019C207.398 198.956 207.373 198.876 207.38 198.795C208.52 184.295 219.54 171.445 226.335 169.295C226.373 169.283 226.413 169.279 226.453 169.282C226.493 169.286 226.531 169.298 226.567 169.317C226.602 169.336 226.632 169.362 226.657 169.394C226.682 169.425 226.7 169.461 226.71 169.5C226.734 169.577 226.727 169.66 226.691 169.732C226.654 169.804 226.591 169.859 226.515 169.885C219.795 172 209.055 185.12 208 198.85C207.995 198.927 207.96 198.999 207.904 199.051C207.847 199.103 207.772 199.132 207.695 199.13Z" fill="#E20046"/>
<path d="M206.245 198.575C206.202 198.585 206.158 198.585 206.115 198.575L203.85 197.575C203.804 197.556 203.764 197.526 203.732 197.488C203.701 197.449 203.68 197.404 203.67 197.355C203.67 197.215 200.86 182.96 205.67 164.69C208.125 155.385 214.365 146.725 220.5 144.1C223.45 142.835 226.22 142.94 228.73 144.405C230.15 145.23 230.985 146.315 231.23 147.63C231.855 151.25 227.815 156.105 223.535 161.245C220.535 164.84 217.45 168.56 215.87 171.965C215.854 172.001 215.831 172.034 215.802 172.061C215.773 172.088 215.738 172.109 215.701 172.123C215.664 172.136 215.624 172.142 215.584 172.14C215.545 172.138 215.506 172.128 215.47 172.11C215.399 172.073 215.344 172.009 215.318 171.933C215.292 171.857 215.297 171.773 215.33 171.7C216.94 168.2 220.065 164.465 223.085 160.84C227.265 155.815 231.22 151.07 230.645 147.73C230.45 146.6 229.735 145.685 228.46 144.94C226.115 143.575 223.52 143.48 220.75 144.67C214.75 147.23 208.68 155.72 206.25 164.86C201.75 181.95 203.93 195.47 204.22 197.075L206.335 197.99C206.409 198.024 206.467 198.085 206.496 198.16C206.526 198.236 206.526 198.32 206.495 198.395C206.474 198.445 206.44 198.488 206.395 198.52C206.351 198.552 206.299 198.571 206.245 198.575Z" fill="#E20046"/>
<path d="M206.5 189.72C206.46 189.718 206.421 189.708 206.384 189.691C206.348 189.674 206.316 189.65 206.289 189.62C206.262 189.59 206.241 189.556 206.227 189.518C206.214 189.48 206.208 189.44 206.21 189.4C206.605 166.855 220.4 150.27 224.27 147.585C224.303 147.563 224.34 147.547 224.378 147.539C224.417 147.532 224.457 147.532 224.496 147.54C224.534 147.548 224.571 147.563 224.604 147.586C224.636 147.608 224.664 147.637 224.685 147.67C224.729 147.738 224.745 147.821 224.73 147.901C224.715 147.981 224.671 148.052 224.605 148.1C220.79 150.745 207.195 167.1 206.805 189.415C206.806 189.455 206.798 189.495 206.783 189.533C206.768 189.57 206.746 189.604 206.717 189.632C206.689 189.661 206.655 189.683 206.618 189.698C206.58 189.713 206.54 189.721 206.5 189.72Z" fill="#E20046"/>
<path d="M129.025 182.705C110.375 193.475 110.375 210.935 129.025 221.705C147.675 232.475 177.92 232.47 196.575 221.705C215.23 210.94 215.225 193.475 196.575 182.705C177.925 171.935 147.68 171.935 129.025 182.705Z" fill="#E0E0E0"/>
<path d="M143.135 217.03C143.135 217.03 129.305 212.03 124.8 204.74C125.215 196.64 125.995 182.095 126.115 182.195L152.18 184.89L146.68 207.745L143.135 217.03Z" fill="#37474F"/>
<path d="M143.135 213.805V217.03C152.82 221 170.865 221.08 182.575 217.255C190.525 214.66 197.435 210.255 199.8 207.54L198.91 184.895H128.41C128.41 188.35 130.54 198.51 132.98 202.74C135.42 206.97 143.135 213.805 143.135 213.805Z" fill="#455A64"/>
<path d="M134.5 97.965C127.625 97.965 123.5 99.225 117.5 99.25C102.085 99.315 93.5651 100.215 93.5651 100.215C93.5651 100.215 73.5651 105.87 74.9801 110.78C76.8201 117.225 89.1401 121.575 105.235 123.915C121.86 126.33 132.15 127.635 132.15 127.635L134.5 97.965Z" fill="#37474F"/>
<path d="M138.53 55.69C139.075 53.49 139.645 51.3 140.19 49.1C140.461 48.1865 140.628 47.2457 140.69 46.295C140.751 45.3374 140.498 44.3859 139.97 43.585C139.575 43.035 138.765 42.585 138.245 43.04C138.095 43.1809 137.976 43.3511 137.895 43.54C136.155 46.8733 134.417 50.2067 132.68 53.54C132.14 54.6344 131.525 55.6902 130.84 56.7C130.155 57.67 129.305 58.58 128.88 59.7C128.455 60.82 126.82 63.855 126.27 64.915C125.095 67.19 123.155 69.765 119.105 72.55C112.77 76.9 102.895 80.14 87.695 88.05C82.695 90.64 78.9051 96.39 76.5101 101.43C72.3601 110.155 75.295 114.56 81.765 114.49C86.93 114.43 94.0051 113.065 101.36 107.7C113.5 98.82 121.155 88.61 127.5 84.56C129.07 83.405 131.835 82.735 132.82 81.9C134.75 80.26 135.625 78.51 136.09 76.025C136.555 73.54 136.395 70.98 136.505 68.46C136.6 66.4 136.545 64.46 136.975 62.43C137.44 60.175 138 57.93 138.53 55.69Z" fill="#FFA8A7"/>
<path d="M132.205 54.42L132.67 53.535L137.885 43.535C137.966 43.3461 138.085 43.1759 138.235 43.035C138.735 42.6 139.565 43.035 139.96 43.58C140.488 44.381 140.741 45.3324 140.68 46.29C140.618 47.2407 140.451 48.1816 140.18 49.095C139.635 51.295 139.065 53.485 138.52 55.685C137.975 57.885 137.43 60.185 136.955 62.425C136.525 64.46 136.58 66.395 136.485 68.455C136.375 70.955 136.535 73.53 136.07 76.02C135.605 78.51 134.73 80.255 132.8 81.895C132.023 82.412 131.183 82.827 130.3 83.13C128.26 79.015 129.335 72.23 130.215 66.13C130.955 61.04 129.225 58.835 132.205 54.42Z" fill="#F28F8F"/>
<path d="M126.12 129.035C126.255 107.075 135.845 100.845 139.645 99.175L155.145 95.725C159.915 96.15 180.315 101.785 185.93 103.045C189.545 103.86 195.475 105.95 197.54 117.435C199.22 126.765 199.465 130.53 198.365 147.49C197.276 162.414 197.644 177.408 199.465 192.26C174.965 200.325 147.89 203.61 129.27 189.96C129.635 186.87 127.21 161.235 126.89 153.665C126.57 146.095 126.08 135 126.12 129.035Z" fill="#FAFAFA"/>
<path d="M148.46 98.5C146.43 99.57 137.205 108.5 136.01 123.29C133.82 150.53 133.865 174.63 133.865 198.2C130.62 196.62 125.31 192.865 123.74 188.615C124.24 179.33 124.24 160.22 124.39 153.69C124.625 144.39 124.89 129.305 125.455 123.325C126.19 115.37 127.92 103.545 134.455 97.99C141.49 97.28 148.16 96.73 148.16 96.73L148.46 98.5Z" fill="#E20046"/>
<path d="M168.38 89.13C169.27 83.81 174.545 78.25 176.92 73.63C179.205 69.13 180.565 65.68 180.29 61.48C180.13 58.98 178.555 55.62 176.705 54.92C178.82 45.66 171.865 41.385 168.175 40.515C166.444 40.1617 164.738 39.6923 163.07 39.11C161.07 38.275 160.605 36.665 158.985 35.295C156.2 32.94 151.485 32.9 149.735 36.48C147.88 34.09 145.365 34.155 142.465 34.9C139.7 35.615 138.395 37.96 138.685 40.51C134.8 38.35 131.245 41.1 130.895 43.38C130.635 45.065 130.995 46.485 129.895 47.995C128.66 49.695 126.315 49.675 125.6 48.305C125.205 50.695 126.14 52.515 128.735 52.375C128.296 53.0405 128.009 53.7945 127.894 54.5834C127.779 55.3723 127.839 56.1769 128.07 56.94C128.384 57.8984 128.983 58.738 129.787 59.3465C130.592 59.955 131.562 60.3034 132.57 60.345C132.845 61.66 132.905 62.845 133.735 63.99C134.517 65.138 135.565 66.0798 136.79 66.735C140.72 68.595 145.065 69.19 149.29 70.055L154.29 71.085C154.585 71.14 156.1 71.23 156.29 71.49L168.38 89.13Z" fill="#263238"/>
<path d="M174.805 82.235C171.075 84.48 169.355 82.05 169.355 82.05L169.78 101.47C169.78 101.47 161.78 111.8 147.455 112.515C146.425 109.38 146.455 103.865 147.23 102.145L147.06 94.345C144.948 94.3883 142.836 94.2998 140.735 94.08C136.565 93.52 133.035 90.23 131.83 85.72C130.575 81.005 130.215 73.29 131.225 67.63C131.501 66.1872 131.574 64.7128 131.44 63.25C131.025 59.375 131.72 57.115 132.71 53.855C137.29 50.15 150.27 49.355 160.18 55.355C158.07 60.405 159.415 65.535 163.705 67.765C163.51 69.355 163.32 73.375 165.935 73.265C167.82 73.21 167.935 70.845 169.865 68.765C171.795 66.685 176.3 66.11 178.055 69.17C180.5 73.455 178.895 79.78 174.805 82.235Z" fill="#FFA8A7"/>
<path d="M147.06 94.345C153.675 93.545 158.695 92.815 162.13 88.015C164.28 85.015 166.095 80.165 166.095 80.165C166.095 80.165 165.435 86 163.285 90C161.63 93.065 157.545 95.625 147.18 96.545L147.06 94.345Z" fill="#F28F8F"/>
<path d="M149.58 68.17C149.603 68.5719 149.743 68.9582 149.984 69.2807C150.225 69.6033 150.555 69.8478 150.934 69.9839C151.313 70.1199 151.723 70.1414 152.114 70.0456C152.505 69.9499 152.86 69.7412 153.133 69.4455C153.406 69.1498 153.586 68.7803 153.65 68.383C153.715 67.9857 153.661 67.5782 153.495 67.2113C153.33 66.8444 153.06 66.5343 152.719 66.3198C152.379 66.1053 151.983 65.9958 151.58 66.005C151.306 66.0146 151.037 66.0784 150.788 66.1927C150.539 66.3069 150.315 66.4694 150.129 66.6707C149.943 66.872 149.799 67.1081 149.705 67.3654C149.61 67.6228 149.568 67.8962 149.58 68.17Z" fill="#263238"/>
<path d="M154.67 62.81L150.695 59.775C150.299 60.324 150.13 61.0047 150.223 61.6752C150.316 62.3458 150.665 62.9546 151.195 63.375C151.458 63.5726 151.758 63.715 152.077 63.7938C152.397 63.8725 152.729 63.8859 153.053 63.8331C153.378 63.7803 153.688 63.6625 153.966 63.4867C154.244 63.3108 154.483 63.0807 154.67 62.81Z" fill="#263238"/>
<path d="M138.455 59.24L134.565 62.445C134.761 62.7107 135.01 62.9336 135.295 63.0998C135.58 63.2659 135.897 63.372 136.224 63.4113C136.552 63.4507 136.885 63.4225 137.201 63.3285C137.518 63.2346 137.812 63.0768 138.065 62.865C138.582 62.4255 138.91 61.8046 138.983 61.1302C139.055 60.4559 138.866 59.7793 138.455 59.24Z" fill="#263238"/>
<path d="M134.5 67.73C134.524 68.1316 134.665 68.5173 134.906 68.8392C135.148 69.1611 135.478 69.4048 135.857 69.5401C136.236 69.6754 136.646 69.6962 137.037 69.5999C137.428 69.5036 137.781 69.2946 138.054 68.9988C138.327 68.703 138.506 68.3335 138.57 67.9363C138.634 67.5392 138.58 67.1319 138.415 66.7653C138.249 66.3987 137.979 66.0889 137.639 65.8746C137.298 65.6603 136.902 65.5509 136.5 65.56C136.226 65.5703 135.957 65.6347 135.708 65.7495C135.458 65.8642 135.234 66.0272 135.049 66.2289C134.863 66.4306 134.719 66.667 134.624 66.9246C134.53 67.1823 134.488 67.456 134.5 67.73Z" fill="#263238"/>
<path d="M138 74.28L144.5 77.135L146.465 64.435C144 63.58 140.93 69.425 138 74.28Z" fill="#F28F8F"/>
<path d="M144.34 84.1C145.4 84.8 146.045 83.74 147.9 82.97C149.755 82.2 151.505 83.115 151.255 81.575C150.995 79.945 148.13 79.005 146.28 79.775C144.43 80.545 143.135 83.3 144.34 84.1Z" fill="#B16668"/>
<path d="M147.755 82.815C147.583 82.8916 147.416 82.9784 147.255 83.075C147.199 82.4857 147.372 81.8973 147.737 81.4319C148.103 80.9665 148.634 80.6597 149.22 80.575C149.496 80.5146 149.782 80.5169 150.058 80.5818C150.333 80.6467 150.59 80.7725 150.81 80.95C150.916 81.103 150.997 81.2718 151.05 81.45C151.435 82.95 149.61 82.045 147.755 82.815Z" fill="#F28F8F"/>
<path d="M195.74 104.93L184.895 97.965L169.685 97.1C169.685 97.1 165.685 106.155 165.43 137.155C165.155 170.875 166.06 206.655 166.06 206.655C166.06 206.655 191.8 206.6 201.46 192.155C201.46 192.155 200.375 181.88 199.815 164.895C199.485 154.86 199.035 148.135 200.12 139.545C202.145 123.58 200.5 113.425 195.74 104.93Z" fill="#E20046"/>
<path d="M166.665 112.81L166.755 98.24C166.755 98.24 169.21 95.41 169.61 93.775L169.555 91.2C169.555 91.2 170.87 91.175 171.055 93C171.24 94.825 171.365 97.805 171.365 97.805L166.665 112.81Z" fill="#37474F"/>
<path d="M139.04 111L140.76 98.81C140.76 98.81 143.76 95.565 145.61 94.355H147.06L147.175 99.52C143.86 102.882 141.113 106.759 139.04 111Z" fill="#37474F"/>
<path d="M140.85 58.68C140.72 58.4373 140.551 58.2177 140.35 58.03C140.16 57.8438 139.934 57.6984 139.685 57.603C139.437 57.5075 139.171 57.464 138.905 57.475C138.665 57.475 138.81 57.845 138.985 57.87C139.16 57.895 139.225 57.925 139.34 57.955L139.415 57.985L139.48 58.015H139.51C139.595 58.06 139.675 58.11 139.76 58.165L139.825 58.215L139.935 58.32L139.97 58.355L140.005 58.395C140.038 58.4311 140.068 58.4695 140.095 58.51L140.175 58.625L140.2 58.67L140.23 58.73L140.29 58.865L140.32 58.94C140.32 58.94 140.345 59.015 140.32 58.985V59.03C140.318 59.0549 140.318 59.0801 140.32 59.105C140.34 59.2208 140.37 59.3345 140.41 59.445C140.443 59.5119 140.493 59.5688 140.555 59.61C140.61 59.67 140.715 59.745 140.785 59.68C141.19 59.455 141 59 140.85 58.68Z" fill="#F28F8F"/>
<path d="M150.3 58.12C150.035 58.2267 149.801 58.3987 149.62 58.62C149.45 58.801 149.3 58.9987 149.17 59.21C149.036 59.4209 148.926 59.6455 148.84 59.88C148.79 60.0039 148.755 60.1331 148.735 60.265C148.73 60.3266 148.73 60.3884 148.735 60.45C148.732 60.4916 148.732 60.5334 148.735 60.575C148.751 60.6522 148.774 60.7275 148.805 60.8C148.835 60.915 149.045 61.1 149.14 60.94C149.192 60.8636 149.239 60.7833 149.28 60.7C149.28 60.63 149.335 60.565 149.36 60.495C149.385 60.425 149.435 60.27 149.48 60.16C149.557 59.9486 149.652 59.7444 149.765 59.55C149.878 59.3734 150.005 59.2062 150.145 59.05C150.335 58.8817 150.503 58.6902 150.645 58.48C150.735 58.26 150.47 58.07 150.3 58.12Z" fill="#F28F8F"/>
<path d="M184.895 97.965C197.825 97.81 202.3 99.335 212.065 102.005C216.695 103.27 230.495 106.57 230.495 106.57L243.14 120.595L239.96 128C235.545 130.435 223.56 128.875 210.46 130.335C205.23 130.92 202.035 132.915 200.435 136.635C199.885 137.92 191.09 138.995 186.935 128.635C183.175 119.25 182.4 107.465 184.895 97.965Z" fill="#37474F"/>
<path d="M190.555 75.705C190.055 73.03 190.47 69.265 190.14 66.705C189.81 64.145 188.38 60.155 188.14 56.92C187.9 53.685 187.445 53.36 186.21 53.63C185.21 53.85 183.865 56.04 184.355 59.475C184.695 62 186.765 73.94 190.555 75.705Z" fill="#F28F8F"/>
<path d="M183.25 55.72C184.105 57.505 185.615 59.2199 186.38 61.0499C187.185 62.955 187.11 63.8699 187.8 67.5999C188.34 70.5049 188.3 73.0999 191.755 76.5999C197.895 82.8299 219.855 91.52 233.045 102.23C238.08 106.31 240.865 110.045 242.615 116.23C244.92 124.39 241.69 128.905 236.75 128.595C230.8 128.22 220.375 125.195 212.865 117.86C200.445 105.73 188.675 93.705 182.115 88.035C180.515 86.46 178.355 84.6 177.37 83.485C175.525 81.4 174.785 78.3149 174.51 75.5449C174.05 70.9599 172.21 67.4649 172.365 65.3799C172.025 63.4149 170.865 60.38 169.84 57.235C169.245 55.45 168.595 53.9049 169.34 52.9949C169.517 52.817 169.719 52.6654 169.94 52.5449C169.94 52.5449 169.875 52.3099 169.86 52.2099C169.695 51.5551 169.597 50.8848 169.57 50.2099C169.511 49.5551 169.7 48.9018 170.1 48.38C170.259 48.2115 170.451 48.0786 170.665 47.99C170.665 47.99 170.6 47.8099 170.525 47.57C170.312 46.926 170.241 46.244 170.315 45.57C170.35 45.2294 170.455 44.8997 170.622 44.6012C170.79 44.3028 171.017 44.042 171.29 43.8349C171.569 43.6376 171.903 43.5316 172.245 43.5316C172.587 43.5316 172.921 43.6376 173.2 43.8349C173.392 44.0028 173.56 44.1963 173.7 44.41L174.84 45.97C175.64 45.355 176.16 45.755 176.87 46.365C177.74 47.115 178.475 48.005 179.27 48.825C180.002 49.5009 180.58 50.3262 180.965 51.2449C181.72 52.7149 182.525 54.21 183.25 55.72Z" fill="#FFA8A7"/>
<path d="M177.37 83.5C175.1 81.185 174.5 77.76 174.17 74.68C173.84 71.6 172.32 68.575 172.365 65.395C172.403 66.1833 172.552 66.9625 172.805 67.71C173.51 69.98 174.305 72.21 174.625 74.615C174.93 77.725 175.41 80.95 177.37 83.5Z" fill="#B16668"/>
<path d="M174.865 45.9199C175.81 47.1099 177.975 49.7099 178.865 50.9199C180.12 52.6449 180.57 54.8549 181.325 56.8299L181.975 58.8299C182.05 59.1671 182.177 59.4908 182.35 59.7899C182.592 60.04 182.86 60.263 183.15 60.4549C182.825 60.3015 182.524 60.1029 182.255 59.8649C181.81 59.2899 181.3 57.6049 180.99 56.9299C180.345 55.2899 179.76 53.6199 179.07 52.0049C177.805 50.0049 176.1 48.0049 174.885 45.9249L174.865 45.9199Z" fill="#B16668"/>
<path d="M170.68 47.9999C171.009 47.8445 171.382 47.8091 171.735 47.8999C172.105 48.0099 172.33 48.3999 172.515 48.6449C172.915 49.2099 173.345 49.7699 173.765 50.3299C174.664 51.4311 175.399 52.6573 175.945 53.9699C176.85 56.2549 177.84 58.5349 178.38 60.9399C178.472 61.2819 178.502 61.6374 178.47 61.9899C178.384 61.2997 178.197 60.6259 177.915 59.9899C176.565 56.7699 175.55 53.3999 173.475 50.5449C173.09 49.9599 172.695 49.3799 172.32 48.7799C172.145 48.4549 172.005 48.1599 171.69 48.0249C171.365 47.9218 171.015 47.9218 170.69 48.0249L170.68 47.9999Z" fill="#B16668"/>
<path d="M169.955 52.55C171.09 52.175 171.645 53.71 172.13 54.46C173.445 56.685 174.16 59.19 174.935 61.64C175.07 62.1476 175.089 62.6791 174.99 63.195C175.04 62.145 174.49 61.255 174.135 60.29C173.78 59.325 173.4 58.375 173.035 57.415C172.67 56.455 172.22 55.55 171.81 54.62C171.385 53.865 171.05 52.38 169.955 52.55Z" fill="#B16668"/>
<path d="M112.225 179.455C109.27 175.135 100.225 173.785 95.2701 177.28C90.0419 174.353 84.1415 172.838 78.1501 172.885C61.9451 172.885 48.8101 183.345 48.8101 196.25C48.8101 209.155 61.9451 219.615 78.1501 219.615C94.3551 219.615 107.5 209.155 107.5 196.25C107.446 191.573 105.757 187.062 102.725 183.5C103.705 180 107.745 178.5 112.225 179.455Z" fill="#F5F5F5"/>
<path d="M73.7451 189.105C73.6751 189.111 73.6046 189.102 73.5382 189.078C73.4719 189.055 73.4112 189.018 73.3601 188.97C73.2932 188.905 73.2298 188.837 73.1701 188.765L69.0401 182.63V188.705C69.0403 188.757 69.0302 188.808 69.0105 188.856C68.9908 188.904 68.9618 188.948 68.9251 188.985C68.8891 189.023 68.8456 189.053 68.7975 189.074C68.7493 189.094 68.6975 189.105 68.6451 189.105H67.4501C67.3448 189.102 67.2446 189.059 67.1701 188.985C67.0956 188.91 67.0527 188.81 67.0501 188.705V179.205C67.0491 179.152 67.0593 179.1 67.08 179.052C67.1007 179.004 67.1314 178.96 67.1701 178.925C67.206 178.887 67.2494 178.856 67.2976 178.836C67.3457 178.815 67.3977 178.805 67.4501 178.805H68.5001C68.5702 178.799 68.6407 178.808 68.707 178.831C68.7733 178.855 68.834 178.892 68.8851 178.94C68.9532 179.004 69.0166 179.072 69.0751 179.145L73.2051 185.275V179.185C73.2051 179.08 73.2466 178.979 73.3205 178.904C73.3944 178.829 73.4949 178.786 73.6001 178.785H74.7951C74.8475 178.785 74.8995 178.795 74.9477 178.816C74.9959 178.836 75.0392 178.867 75.0751 178.905C75.1138 178.94 75.1446 178.984 75.1653 179.032C75.186 179.08 75.1961 179.132 75.1951 179.185V188.685C75.1926 188.79 75.1496 188.89 75.0752 188.965C75.0007 189.039 74.9004 189.082 74.7951 189.085L73.7451 189.105Z" fill="white"/>
<path d="M80.3451 181.29C80.8462 181.284 81.3443 181.368 81.8151 181.54C82.2336 181.698 82.6186 181.934 82.9501 182.235C83.2675 182.527 83.527 182.877 83.7151 183.265C83.9102 183.662 84.0241 184.093 84.0501 184.535C84.0501 184.62 84.0501 184.735 84.0501 184.875V185.69C84.0501 185.825 84.0501 185.935 84.0501 186.025C84.0128 186.463 83.8977 186.892 83.7101 187.29C83.5263 187.678 83.2681 188.026 82.9501 188.315C82.6182 188.612 82.2331 188.845 81.8151 189C80.8652 189.333 79.83 189.333 78.8801 189C78.4621 188.845 78.0771 188.612 77.7451 188.315C77.4271 188.026 77.1689 187.678 76.9851 187.29C76.7969 186.892 76.6833 186.464 76.6501 186.025C76.6501 185.935 76.6501 185.825 76.6251 185.69C76.6001 185.555 76.6251 185.425 76.6251 185.285C76.6251 185.145 76.6251 185.01 76.6251 184.875C76.6251 184.74 76.6251 184.62 76.6501 184.535C76.6744 184.094 76.7866 183.662 76.9801 183.265C77.1683 182.877 77.4278 182.527 77.7451 182.235C78.0766 181.934 78.4616 181.698 78.8801 181.54C79.3493 181.369 79.8457 181.284 80.3451 181.29ZM82.1301 184.61C82.1112 184.345 82.0399 184.087 81.9201 183.85C81.8209 183.651 81.6751 183.48 81.4951 183.35C81.3324 183.231 81.1468 183.148 80.9501 183.105C80.5531 183.018 80.1421 183.018 79.7451 183.105C79.5485 183.148 79.3629 183.231 79.2001 183.35C79.0203 183.479 78.8759 183.651 78.7801 183.85C78.6559 184.085 78.5826 184.344 78.5651 184.61C78.5651 184.685 78.5651 184.785 78.5651 184.9C78.5651 185.015 78.5651 185.145 78.5651 185.27C78.5651 185.395 78.5651 185.525 78.5651 185.645C78.5602 185.741 78.5602 185.838 78.5651 185.935C78.5833 186.2 78.6566 186.459 78.7801 186.695C78.8801 186.885 79.0241 187.047 79.2001 187.17C79.3629 187.288 79.5485 187.372 79.7451 187.415C80.1421 187.502 80.5531 187.502 80.9501 187.415C81.1468 187.372 81.3324 187.288 81.4951 187.17C81.6713 187.046 81.8167 186.884 81.9201 186.695C82.0399 186.458 82.1112 186.2 82.1301 185.935C82.1366 185.838 82.1366 185.741 82.1301 185.645V184.9C82.1362 184.803 82.1362 184.706 82.1301 184.61Z" fill="white"/>
<path d="M85.3001 187.44C85.3227 187.293 85.3869 187.156 85.4851 187.045C85.5418 186.983 85.6117 186.935 85.6896 186.904C85.7675 186.873 85.8514 186.859 85.9351 186.865H87.2151C87.2579 186.864 87.3004 186.872 87.34 186.888C87.3796 186.905 87.4154 186.929 87.4451 186.96C87.4756 186.989 87.4997 187.024 87.5161 187.063C87.5324 187.101 87.5406 187.143 87.5401 187.185C87.5457 187.22 87.5457 187.255 87.5401 187.29L86.5701 189.735C86.5223 189.849 86.4546 189.954 86.3701 190.045C86.3142 190.103 86.2463 190.148 86.1711 190.176C86.0958 190.205 86.0153 190.216 85.9351 190.21H85.2701C85.2281 190.21 85.1865 190.202 85.1478 190.186C85.1091 190.169 85.0742 190.145 85.0451 190.115C85.0135 190.086 84.9884 190.05 84.9712 190.01C84.954 189.971 84.9451 189.928 84.9451 189.885V189.855L85.3001 187.44Z" fill="white"/>
<path d="M66.15 200.705C66.1513 200.757 66.1418 200.809 66.122 200.857C66.1022 200.905 66.0725 200.949 66.035 200.985C65.9989 201.023 65.9555 201.053 65.9073 201.074C65.8592 201.094 65.8073 201.105 65.755 201.105H64.635C64.5825 201.106 64.5303 201.096 64.482 201.075C64.4338 201.054 64.3904 201.024 64.355 200.985C64.3167 200.949 64.2863 200.906 64.2657 200.857C64.245 200.809 64.2346 200.757 64.235 200.705V196.96C64.2614 196.456 64.1169 195.957 63.825 195.545C63.6709 195.362 63.4753 195.218 63.2543 195.126C63.0334 195.033 62.7936 194.996 62.555 195.015C62.3229 195.002 62.091 195.043 61.8775 195.135C61.6641 195.227 61.4749 195.367 61.325 195.545C61.0089 195.947 60.849 196.449 60.875 196.96V200.705C60.8754 200.757 60.8649 200.809 60.8442 200.857C60.8236 200.906 60.7932 200.949 60.755 200.985C60.7195 201.024 60.6762 201.054 60.6279 201.075C60.5796 201.096 60.5275 201.106 60.475 201.105H59.355C59.3026 201.105 59.2507 201.094 59.2026 201.074C59.1544 201.053 59.111 201.023 59.075 200.985C59.0383 200.948 59.0093 200.904 58.9896 200.856C58.9698 200.808 58.9598 200.757 58.96 200.705V193.835C58.96 193.783 58.9702 193.732 58.99 193.684C59.0099 193.636 59.039 193.592 59.0757 193.556C59.1123 193.519 59.1559 193.49 59.2038 193.47C59.2517 193.45 59.3031 193.44 59.355 193.44H60.5C60.6052 193.44 60.7062 193.481 60.7811 193.555C60.8559 193.629 60.8987 193.73 60.9 193.835V194.175C61.1629 193.915 61.467 193.701 61.8 193.54C62.1843 193.366 62.603 193.28 63.025 193.29C63.5393 193.275 64.0509 193.37 64.525 193.57C64.9056 193.74 65.2399 193.999 65.5 194.325C65.7436 194.65 65.9142 195.023 66 195.42C66.1055 195.852 66.1576 196.295 66.155 196.74L66.15 200.705Z" fill="white"/>
<path d="M71.1202 193.29C71.6196 193.284 72.1161 193.368 72.5852 193.54C73.4175 193.85 74.0993 194.467 74.4902 195.265C74.6813 195.663 74.7934 196.094 74.8202 196.535C74.8265 196.648 74.8265 196.762 74.8202 196.875V197.69C74.8262 197.801 74.8262 197.913 74.8202 198.025C74.7829 198.463 74.6677 198.892 74.4802 199.29C74.2981 199.679 74.0396 200.028 73.7202 200.315C73.3889 200.613 73.0037 200.846 72.5852 201C71.637 201.333 70.6034 201.333 69.6552 201C69.2361 200.847 68.8506 200.615 68.5202 200.315C68.2007 200.028 67.9422 199.679 67.7602 199.29C67.5703 198.893 67.4551 198.464 67.4202 198.025C67.4202 197.935 67.4202 197.825 67.4202 197.69C67.4202 197.555 67.4202 197.425 67.4202 197.285C67.4202 197.145 67.4202 197.01 67.4202 196.875C67.4202 196.74 67.4202 196.62 67.4202 196.535C67.4469 196.094 67.559 195.663 67.7502 195.265C67.9418 194.877 68.2028 194.528 68.5202 194.235C68.85 193.932 69.2355 193.696 69.6552 193.54C70.1243 193.368 70.6207 193.284 71.1202 193.29ZM72.9052 196.61C72.8877 196.344 72.8144 196.085 72.6902 195.85C72.5911 195.653 72.4472 195.482 72.2702 195.35C72.1064 195.233 71.9212 195.15 71.7252 195.105C71.5265 195.061 71.3236 195.039 71.1202 195.04C70.9167 195.039 70.7137 195.061 70.5152 195.105C70.3189 195.149 70.1336 195.233 69.9702 195.35C69.7918 195.48 69.6477 195.652 69.5502 195.85C69.4259 196.085 69.3527 196.344 69.3352 196.61C69.3352 196.685 69.3352 196.785 69.3352 196.9C69.3352 197.015 69.3352 197.145 69.3352 197.27C69.3352 197.395 69.3352 197.525 69.3352 197.645C69.3352 197.765 69.3352 197.865 69.3352 197.935C69.3534 198.2 69.4266 198.459 69.5502 198.695C69.6517 198.883 69.7954 199.046 69.9702 199.17C70.1336 199.287 70.3189 199.371 70.5152 199.415C70.7137 199.459 70.9167 199.481 71.1202 199.48C71.3236 199.481 71.5265 199.459 71.7252 199.415C71.9212 199.37 72.1064 199.287 72.2702 199.17C72.4436 199.045 72.5871 198.882 72.6902 198.695C72.8137 198.459 72.8869 198.2 72.9052 197.935C72.9117 197.838 72.9117 197.741 72.9052 197.645V196.9C72.9112 196.803 72.9112 196.706 72.9052 196.61Z" fill="white"/>
<path d="M76.075 199.44C76.0956 199.294 76.1582 199.157 76.255 199.045C76.312 198.983 76.3819 198.935 76.4598 198.904C76.5376 198.873 76.6214 198.86 76.705 198.865H78C78.0428 198.864 78.0853 198.872 78.1248 198.889C78.1644 198.905 78.2002 198.929 78.2301 198.96C78.2898 199.02 78.3238 199.1 78.325 199.185C78.3306 199.22 78.3306 199.255 78.325 199.29L77.35 201.735C77.3023 201.849 77.2346 201.954 77.15 202.045C77.0949 202.104 77.027 202.149 76.9516 202.178C76.8762 202.206 76.7953 202.217 76.715 202.21H76.055C75.9689 202.21 75.8864 202.175 75.825 202.115C75.7942 202.085 75.7698 202.05 75.7535 202.01C75.7371 201.97 75.7291 201.928 75.7301 201.885V201.855L76.075 199.44Z" fill="white"/>
<path d="M89.885 200.705C89.8853 200.757 89.8749 200.809 89.8542 200.857C89.8336 200.906 89.8032 200.949 89.7649 200.985C89.7295 201.024 89.6862 201.054 89.6379 201.075C89.5896 201.096 89.5375 201.106 89.485 201.105H88.3649C88.3126 201.105 88.2607 201.094 88.2126 201.074C88.1644 201.053 88.121 201.023 88.0849 200.985C88.0474 200.949 88.0177 200.905 87.9979 200.857C87.9781 200.809 87.9686 200.757 87.97 200.705V196.96C87.9949 196.455 87.8487 195.956 87.555 195.545C87.4009 195.362 87.2053 195.218 86.9843 195.126C86.7634 195.033 86.5236 194.995 86.285 195.015C86.0529 195.002 85.821 195.043 85.6075 195.135C85.3941 195.227 85.2049 195.367 85.0549 195.545C84.7389 195.947 84.579 196.449 84.605 196.96V200.705C84.6063 200.757 84.5968 200.809 84.577 200.857C84.5572 200.905 84.5275 200.949 84.4899 200.985C84.4539 201.023 84.4105 201.053 84.3623 201.074C84.3142 201.094 84.2623 201.105 84.2099 201.105H83.0899C83.0374 201.106 82.9853 201.096 82.937 201.075C82.8888 201.054 82.8454 201.024 82.8099 200.985C82.7717 200.949 82.7413 200.906 82.7207 200.857C82.7 200.809 82.6896 200.757 82.69 200.705V193.835C82.6913 193.73 82.734 193.629 82.8089 193.555C82.8837 193.481 82.9847 193.44 83.0899 193.44H84.2099C84.3147 193.44 84.4153 193.481 84.4899 193.555C84.5273 193.591 84.5568 193.635 84.5765 193.683C84.5963 193.731 84.606 193.783 84.605 193.835V194.175C84.8688 193.916 85.1727 193.702 85.5049 193.54C85.8894 193.366 86.3081 193.281 86.73 193.29C87.2442 193.275 87.7556 193.371 88.23 193.57C88.6083 193.742 88.9407 194 89.1999 194.325C89.4504 194.649 89.6293 195.022 89.7249 195.42C89.8305 195.852 89.8826 196.295 89.8799 196.74L89.885 200.705Z" fill="white"/>
<path d="M94.8501 193.29C95.3512 193.284 95.8492 193.369 96.3201 193.54C96.7386 193.699 97.1237 193.934 97.4551 194.235C98.1048 194.83 98.4975 195.655 98.5501 196.535C98.5564 196.648 98.5564 196.762 98.5501 196.875V197.69C98.5562 197.802 98.5562 197.913 98.5501 198.025C98.5145 198.463 98.4011 198.892 98.2151 199.29C98.0314 199.678 97.7731 200.026 97.4551 200.315C97.1232 200.613 96.7381 200.845 96.3201 201C95.3702 201.333 94.3351 201.333 93.3851 201C92.9672 200.845 92.5821 200.613 92.2501 200.315C91.9322 200.026 91.6739 199.678 91.4901 199.29C91.3026 198.892 91.1874 198.463 91.1501 198.025C91.1501 197.935 91.1501 197.825 91.1501 197.69C91.1501 197.555 91.1501 197.425 91.1501 197.285C91.1501 197.145 91.1501 197.01 91.1501 196.875C91.1501 196.74 91.1501 196.62 91.1501 196.535C91.1761 196.094 91.29 195.662 91.4851 195.265C91.6733 194.877 91.9328 194.527 92.2501 194.235C92.5816 193.934 92.9666 193.699 93.3851 193.54C93.8543 193.369 94.3507 193.284 94.8501 193.29ZM96.6351 196.61C96.6177 196.344 96.5444 196.085 96.4201 195.85C96.3244 195.651 96.18 195.479 96.0001 195.35C95.8374 195.231 95.6518 195.148 95.4551 195.105C95.0582 195.018 94.6471 195.018 94.2501 195.105C94.0521 195.149 93.865 195.232 93.7001 195.35C93.5231 195.482 93.3792 195.653 93.2801 195.85C93.1604 196.087 93.089 196.345 93.0701 196.61C93.0701 196.685 93.0701 196.785 93.0701 196.9C93.0701 197.015 93.0701 197.145 93.0701 197.27C93.0701 197.395 93.0701 197.525 93.0701 197.645C93.0652 197.742 93.0652 197.838 93.0701 197.935C93.089 198.2 93.1604 198.458 93.2801 198.695C93.3833 198.882 93.5267 199.045 93.7001 199.17C93.865 199.288 94.0521 199.371 94.2501 199.415C94.6471 199.502 95.0582 199.502 95.4551 199.415C95.6518 199.372 95.8374 199.288 96.0001 199.17C96.1761 199.048 96.3202 198.885 96.4201 198.695C96.5437 198.459 96.6169 198.2 96.6351 197.935C96.6417 197.838 96.6417 197.742 96.6351 197.645V196.9C96.6412 196.803 96.6412 196.707 96.6351 196.61Z" fill="white"/>
<path d="M76.215 212.705C76.2125 212.81 76.1695 212.91 76.0951 212.985C76.0206 213.059 75.9203 213.102 75.815 213.105H74.695C74.5897 213.102 74.4895 213.059 74.415 212.985C74.3405 212.91 74.2976 212.81 74.295 212.705V208.96C74.3214 208.456 74.177 207.957 73.885 207.545C73.731 207.362 73.5353 207.218 73.3144 207.126C73.0935 207.033 72.8536 206.995 72.615 207.015C72.383 207.002 72.151 207.043 71.9376 207.135C71.7241 207.227 71.535 207.367 71.385 207.545C71.0689 207.947 70.9091 208.449 70.935 208.96V212.705C70.9352 212.757 70.9251 212.808 70.9054 212.856C70.8857 212.904 70.8567 212.948 70.82 212.985C70.784 213.023 70.7405 213.053 70.6924 213.074C70.6443 213.094 70.5924 213.105 70.54 213.105H69.415C69.3626 213.105 69.3108 213.094 69.2627 213.074C69.2145 213.053 69.1711 213.023 69.135 212.985C69.0984 212.948 69.0694 212.904 69.0496 212.856C69.0299 212.808 69.0198 212.757 69.02 212.705V205.835C69.02 205.73 69.0616 205.63 69.1357 205.556C69.2098 205.482 69.3103 205.44 69.415 205.44H70.54C70.6448 205.44 70.7453 205.482 70.8193 205.556C70.8934 205.63 70.935 205.73 70.935 205.835V206.175C71.198 205.915 71.5021 205.701 71.835 205.54C72.2193 205.365 72.6381 205.28 73.06 205.29C73.5744 205.274 74.086 205.37 74.56 205.57C74.9407 205.74 75.275 205.999 75.535 206.325C75.7855 206.649 75.9644 207.022 76.06 207.42C76.1632 207.852 76.2152 208.295 76.215 208.74V212.705Z" fill="white"/>
<path d="M81.18 205.29C81.6794 205.284 82.1759 205.368 82.645 205.54C83.0647 205.696 83.4501 205.932 83.78 206.235C84.0974 206.528 84.3584 206.877 84.55 207.265C84.7412 207.663 84.8532 208.094 84.88 208.535C84.8863 208.648 84.8863 208.762 84.88 208.875V209.69C84.886 209.801 84.886 209.913 84.88 210.025C84.8451 210.464 84.7298 210.893 84.54 211.29C84.3579 211.679 84.0995 212.028 83.78 212.315C83.4496 212.615 83.0641 212.847 82.645 213C81.6968 213.333 80.6632 213.333 79.715 213C79.2965 212.846 78.9112 212.613 78.58 212.315C78.2605 212.028 78.002 211.679 77.82 211.29C77.6324 210.892 77.5173 210.463 77.48 210.025C77.48 209.935 77.48 209.825 77.48 209.69C77.48 209.555 77.48 209.425 77.48 209.285C77.48 209.145 77.48 209.01 77.48 208.875C77.48 208.74 77.48 208.62 77.48 208.535C77.5067 208.094 77.6188 207.663 77.81 207.265C78.2008 206.467 78.8826 205.85 79.715 205.54C80.1841 205.368 80.6805 205.284 81.18 205.29ZM82.965 208.61C82.9475 208.344 82.8742 208.085 82.75 207.85C82.6509 207.653 82.507 207.482 82.33 207.35C82.1666 207.233 81.9812 207.149 81.785 207.105C81.3863 207.018 80.9737 207.018 80.575 207.105C80.379 207.15 80.1938 207.233 80.03 207.35C79.8529 207.482 79.7091 207.653 79.61 207.85C79.4857 208.085 79.4125 208.344 79.395 208.61C79.395 208.685 79.395 208.785 79.395 208.9C79.395 209.015 79.395 209.145 79.395 209.27C79.395 209.395 79.395 209.525 79.395 209.645C79.395 209.765 79.395 209.865 79.395 209.935C79.4132 210.2 79.4864 210.459 79.61 210.695C79.7131 210.882 79.8565 211.045 80.03 211.17C80.1938 211.287 80.379 211.37 80.575 211.415C80.9737 211.501 81.3863 211.501 81.785 211.415C81.9812 211.371 82.1666 211.287 82.33 211.17C82.5034 211.045 82.6469 210.882 82.75 210.695C82.8735 210.459 82.9468 210.2 82.965 209.935C82.9715 209.838 82.9715 209.741 82.965 209.645V208.9C82.971 208.803 82.971 208.706 82.965 208.61Z" fill="white"/>
<path d="M87.8152 211C87.9204 211.001 88.0208 211.044 88.0948 211.119C88.1687 211.194 88.2102 211.295 88.2102 211.4V212.695C88.2103 212.747 88.2003 212.798 88.1805 212.846C88.1608 212.894 88.1318 212.938 88.0952 212.975C88.0591 213.013 88.0157 213.043 87.9675 213.064C87.9194 213.084 87.8675 213.095 87.8152 213.095H86.5452C86.4928 213.095 86.4409 213.084 86.3928 213.064C86.3446 213.043 86.3012 213.013 86.2652 212.975C86.2276 212.939 86.198 212.895 86.1782 212.847C86.1584 212.799 86.1488 212.747 86.1502 212.695V211.4C86.1482 211.348 86.1574 211.296 86.1773 211.247C86.1971 211.199 86.2271 211.156 86.2652 211.12C86.3012 211.082 86.3446 211.052 86.3928 211.031C86.4409 211.01 86.4928 211 86.5452 211H87.8152ZM88.1402 209.72C88.1403 209.772 88.1297 209.824 88.109 209.872C88.0884 209.92 88.0582 209.964 88.0202 210C87.9833 210.037 87.9397 210.066 87.8916 210.085C87.8436 210.105 87.7921 210.115 87.7402 210.115H86.6202C86.5682 210.115 86.5168 210.105 86.4687 210.085C86.4207 210.066 86.377 210.037 86.3402 210C86.3022 209.964 86.2719 209.92 86.2513 209.872C86.2307 209.824 86.2201 209.772 86.2202 209.72V203.185C86.2191 203.132 86.2293 203.08 86.25 203.032C86.2707 202.984 86.3014 202.94 86.3402 202.905C86.376 202.867 86.4194 202.836 86.4676 202.816C86.5158 202.795 86.5677 202.785 86.6202 202.785H87.7402C87.7926 202.785 87.8445 202.795 87.8927 202.816C87.9409 202.836 87.9843 202.867 88.0202 202.905C88.0589 202.94 88.0896 202.984 88.1103 203.032C88.131 203.08 88.1412 203.132 88.1402 203.185V209.72Z" fill="white"/>
<path d="M23.3299 147.05C22.0749 145.55 19.7099 144.99 17.1499 145.55C19.2899 142.375 25.7699 141.36 29.4399 143.835C32.1742 142.891 35.0474 142.413 37.9399 142.42C49.8199 142.42 59.4399 150.195 59.4399 159.785C59.4399 169.375 49.8099 177.145 37.9399 177.145C26.0699 177.145 16.4399 169.375 16.4399 159.785C16.4399 154.75 19.0949 150.22 23.3299 147.05Z" fill="#F5F5F5"/>
<path d="M43.2249 151.645L37.9499 156.92L32.6749 151.645C32.4913 151.441 32.268 151.276 32.0187 151.161C31.7693 151.045 31.4992 150.982 31.2246 150.975C30.95 150.967 30.6768 151.016 30.4215 151.117C30.1662 151.218 29.9342 151.371 29.7397 151.564C29.5451 151.758 29.392 151.99 29.2897 152.245C29.1874 152.5 29.138 152.773 29.1446 153.047C29.1512 153.322 29.2136 153.592 29.3279 153.842C29.4423 154.092 29.6063 154.316 29.8099 154.5L35.0849 159.775L29.8099 165.06C29.43 165.44 29.2166 165.955 29.2166 166.493C29.2166 167.03 29.43 167.545 29.8099 167.925C30.1899 168.305 30.7051 168.518 31.2424 168.518C31.7797 168.518 32.295 168.305 32.6749 167.925L37.9499 162.65L43.2249 167.925C43.6049 168.305 44.1202 168.518 44.6574 168.518C45.1947 168.518 45.71 168.305 46.0899 167.925C46.4699 167.545 46.6833 167.03 46.6833 166.493C46.6833 165.955 46.4699 165.44 46.0899 165.06L40.8149 159.785L46.0899 154.5C46.2781 154.312 46.4273 154.089 46.5291 153.843C46.6309 153.597 46.6833 153.334 46.6833 153.068C46.6833 152.801 46.6309 152.538 46.5291 152.292C46.4273 152.046 46.2781 151.823 46.0899 151.635C45.9018 151.447 45.6785 151.298 45.4327 151.196C45.1869 151.094 44.9235 151.042 44.6574 151.042C44.3914 151.042 44.128 151.094 43.8822 151.196C43.6364 151.298 43.4131 151.447 43.2249 151.635V151.645Z" fill="white"/>
<path d="M105.65 138.5C106.725 137.22 108.735 136.745 110.92 137.225C109.095 134.52 103.575 133.655 100.45 135.765C98.118 134.96 95.6671 134.552 93.2 134.56C83.085 134.56 74.885 141.18 74.885 149.345C74.885 157.51 83.085 164.13 93.2 164.13C103.315 164.13 111.5 157.5 111.5 149.335C111.5 145.05 109.26 141.19 105.65 138.5Z" fill="#EBEBEB"/>
<path d="M77.8001 148.375C77.819 147.992 77.8966 147.614 78.0301 147.255C78.1563 146.912 78.354 146.6 78.6101 146.34C78.8806 146.069 79.2063 145.859 79.5651 145.725C79.9995 145.562 80.4612 145.484 80.9251 145.495C81.3852 145.485 81.8432 145.561 82.2751 145.72C82.6366 145.852 82.9645 146.062 83.2351 146.335C83.4895 146.597 83.6869 146.908 83.8151 147.25C83.954 147.61 84.0334 147.99 84.0501 148.375C84.0501 148.51 84.0501 148.66 84.0501 148.82C84.0501 148.98 84.0501 149.155 84.0501 149.32C84.0501 149.485 84.0501 149.665 84.0501 149.82C84.0501 149.975 84.0501 150.135 84.0501 150.27C84.0327 150.653 83.9568 151.03 83.8251 151.39C83.6969 151.732 83.4995 152.043 83.2451 152.305C82.9706 152.575 82.6415 152.783 82.2801 152.915C81.3999 153.215 80.4452 153.215 79.5651 152.915C79.2066 152.783 78.8809 152.575 78.6101 152.305C78.354 152.045 78.1563 151.733 78.0301 151.39C77.8966 151.031 77.819 150.653 77.8001 150.27C77.8001 150.137 77.8001 149.987 77.8001 149.82C77.8001 149.66 77.8001 149.49 77.8001 149.32C77.8001 149.15 77.8001 148.98 77.8001 148.82C77.8001 148.66 77.7951 148.5 77.8001 148.375ZM82.6151 148.43C82.6156 148.209 82.5716 147.99 82.4857 147.787C82.3998 147.583 82.2737 147.399 82.1151 147.245C81.8793 147.009 81.5791 146.849 81.2522 146.783C80.9253 146.718 80.5863 146.75 80.2779 146.877C79.9695 147.003 79.7055 147.219 79.519 147.495C79.3326 147.771 79.232 148.097 79.2301 148.43C79.2301 148.7 79.2301 148.995 79.2301 149.325C79.2301 149.655 79.2301 149.955 79.2301 150.225C79.2313 150.445 79.2762 150.663 79.362 150.865C79.4478 151.068 79.5729 151.251 79.7301 151.405C80.0705 151.674 80.4915 151.82 80.9251 151.82C81.3587 151.82 81.7796 151.674 82.1201 151.405C82.2791 151.253 82.4054 151.069 82.4913 150.866C82.5773 150.664 82.6211 150.445 82.6201 150.225C82.6201 149.955 82.6201 149.655 82.6201 149.325C82.6201 148.995 82.6301 148.7 82.6151 148.43Z" fill="white"/>
<path d="M90.2801 152.755C90.2805 152.792 90.2732 152.83 90.2586 152.864C90.244 152.898 90.2223 152.929 90.1951 152.955C90.1698 152.983 90.1389 153.005 90.1044 153.019C90.0699 153.034 90.0326 153.041 89.9951 153.04H89.1851C89.1099 153.039 89.0381 153.008 88.985 152.955C88.9318 152.902 88.9014 152.83 88.9001 152.755V150.055C88.9139 149.698 88.8084 149.346 88.6001 149.055C88.4838 148.933 88.3442 148.837 88.1895 148.77C88.0348 148.704 87.8683 148.67 87.7001 148.67C87.5318 148.67 87.3654 148.704 87.2107 148.77C87.056 148.837 86.9163 148.933 86.8001 149.055C86.577 149.339 86.4619 149.694 86.4751 150.055V152.755C86.4755 152.792 86.4682 152.83 86.4536 152.864C86.439 152.898 86.4173 152.929 86.3901 152.955C86.3648 152.983 86.3339 153.005 86.2994 153.019C86.2649 153.034 86.2276 153.041 86.1901 153.04H85.3801C85.3049 153.039 85.2331 153.008 85.18 152.955C85.1268 152.902 85.0964 152.83 85.0951 152.755V145.78C85.094 145.743 85.101 145.705 85.1157 145.671C85.1304 145.636 85.1523 145.605 85.1801 145.58C85.2057 145.553 85.2367 145.531 85.2712 145.517C85.3056 145.502 85.3427 145.495 85.3801 145.495H86.1901C86.2653 145.496 86.337 145.527 86.3902 145.58C86.4434 145.633 86.4738 145.705 86.4751 145.78V148.045C86.6642 147.857 86.884 147.703 87.1251 147.59C87.401 147.464 87.7019 147.403 88.0051 147.41C88.377 147.397 88.7472 147.465 89.0901 147.61C89.3633 147.731 89.6034 147.917 89.7901 148.15C89.9717 148.385 90.1012 148.656 90.1701 148.945C90.2453 149.256 90.2823 149.575 90.2801 149.895V152.755Z" fill="white"/>
<path d="M98.775 152.755C98.7737 152.831 98.7425 152.904 98.6883 152.957C98.634 153.01 98.561 153.04 98.485 153.04H97.68C97.6039 153.04 97.5309 153.01 97.4766 152.957C97.4224 152.904 97.3913 152.831 97.39 152.755V150.055C97.4057 149.698 97.3018 149.346 97.095 149.055C96.9836 148.923 96.8426 148.82 96.6836 148.753C96.5246 148.686 96.352 148.658 96.18 148.67C96.0122 148.663 95.845 148.694 95.6909 148.761C95.5368 148.827 95.3997 148.928 95.29 149.055C95.0687 149.34 94.9553 149.694 94.97 150.055V152.755C94.9687 152.831 94.9375 152.904 94.8833 152.957C94.829 153.01 94.756 153.04 94.68 153.04H93.875C93.7989 153.04 93.7259 153.01 93.6716 152.957C93.6174 152.904 93.5863 152.831 93.585 152.755V147.8C93.5851 147.763 93.5927 147.726 93.6073 147.692C93.6219 147.657 93.6432 147.626 93.67 147.6C93.7243 147.546 93.7981 147.515 93.875 147.515H94.68C94.7569 147.515 94.8306 147.546 94.885 147.6C94.9117 147.626 94.9331 147.657 94.9477 147.692C94.9623 147.726 94.9698 147.763 94.97 147.8V148.045C95.1582 147.859 95.3762 147.705 95.615 147.59C95.8926 147.464 96.1952 147.403 96.5 147.41C96.8718 147.398 97.2419 147.466 97.585 147.61C97.8582 147.731 98.0983 147.917 98.285 148.15C98.465 148.385 98.5929 148.656 98.66 148.945C98.7369 149.256 98.7755 149.575 98.775 149.895V152.755Z" fill="white"/>
<path d="M102.355 147.41C102.716 147.405 103.076 147.466 103.415 147.59C103.717 147.702 103.994 147.872 104.23 148.09C104.462 148.3 104.65 148.553 104.785 148.835C104.926 149.119 105.007 149.429 105.025 149.745C105.025 149.81 105.025 149.89 105.025 149.99V150.58C105.025 150.675 105.025 150.755 105.025 150.82C104.998 151.137 104.915 151.447 104.78 151.735C104.649 152.016 104.462 152.268 104.23 152.475C103.991 152.69 103.715 152.86 103.415 152.975C102.73 153.215 101.984 153.215 101.3 152.975C100.998 152.86 100.72 152.69 100.48 152.475C100.25 152.267 100.063 152.015 99.9299 151.735C99.7965 151.447 99.7153 151.137 99.6899 150.82C99.6899 150.755 99.6899 150.675 99.6899 150.58C99.6899 150.485 99.6899 150.39 99.6899 150.29C99.6899 150.19 99.6899 150.09 99.6899 149.99C99.6899 149.89 99.6899 149.81 99.6899 149.745C99.7082 149.429 99.788 149.12 99.9249 148.835C100.207 148.259 100.699 147.813 101.3 147.59C101.638 147.466 101.995 147.405 102.355 147.41ZM103.64 149.8C103.628 149.61 103.577 149.424 103.49 149.255C103.416 149.117 103.311 148.998 103.185 148.905C103.066 148.822 102.932 148.762 102.79 148.73C102.503 148.67 102.207 148.67 101.92 148.73C101.779 148.763 101.645 148.823 101.525 148.905C101.399 148.997 101.296 149.117 101.225 149.255C101.134 149.423 101.081 149.609 101.07 149.8C101.066 149.87 101.066 149.94 101.07 150.01C101.07 150.095 101.07 150.185 101.07 150.28C101.07 150.375 101.07 150.46 101.07 150.55C101.066 150.618 101.066 150.687 101.07 150.755C101.081 150.948 101.134 151.135 101.225 151.305C101.297 151.442 101.4 151.56 101.525 151.65C101.643 151.735 101.778 151.794 101.92 151.825C102.206 151.892 102.504 151.892 102.79 151.825C102.932 151.795 103.067 151.735 103.185 151.65C103.31 151.558 103.414 151.441 103.49 151.305C103.577 151.134 103.628 150.947 103.64 150.755C103.646 150.687 103.646 150.618 103.64 150.55V150C103.645 149.934 103.645 149.867 103.64 149.8Z" fill="white"/>
<path d="M107.14 151.535C107.215 151.536 107.287 151.567 107.34 151.62C107.393 151.673 107.424 151.745 107.425 151.82V152.755C107.424 152.83 107.393 152.902 107.34 152.955C107.287 153.008 107.215 153.039 107.14 153.04H106.225C106.15 153.039 106.078 153.008 106.025 152.955C105.972 152.902 105.941 152.83 105.94 152.755V151.82C105.941 151.745 105.972 151.673 106.025 151.62C106.078 151.567 106.15 151.536 106.225 151.535H107.14ZM107.375 150.61C107.375 150.647 107.367 150.684 107.353 150.719C107.338 150.753 107.317 150.784 107.29 150.81C107.236 150.864 107.162 150.895 107.085 150.895H106.28C106.203 150.895 106.129 150.864 106.075 150.81C106.048 150.784 106.027 150.753 106.012 150.719C105.998 150.684 105.99 150.647 105.99 150.61V145.89C105.99 145.813 106.02 145.739 106.075 145.685C106.129 145.631 106.203 145.6 106.28 145.6H107.085C107.162 145.6 107.236 145.631 107.29 145.685C107.344 145.739 107.375 145.813 107.375 145.89V150.61Z" fill="white"/>
<path d="M60.0901 128.28C65.0151 124.595 68.0901 119.335 68.0901 113.485C68.0901 102.34 56.8951 93.3101 43.0901 93.3101C29.2851 93.3101 18.0901 102.34 18.0901 113.485C18.0901 124.63 29.2801 133.66 43.0901 133.66C46.4632 133.667 49.8135 133.106 53.0001 132C57.2601 134.88 64.7901 133.7 67.2801 130C64.2951 130.675 61.5501 130.03 60.0901 128.28Z" fill="#F0F0F0"/>
<path d="M23.2351 112.565C23.2611 112.064 23.3623 111.571 23.5351 111.1C23.6998 110.653 23.9571 110.246 24.2901 109.905C24.6474 109.554 25.0728 109.28 25.5401 109.1C26.6868 108.703 27.9335 108.703 29.0801 109.1C29.5509 109.273 29.9776 109.548 30.3301 109.905C30.6635 110.246 30.9238 110.65 31.0951 111.095C31.2755 111.567 31.3785 112.065 31.4001 112.57C31.4001 112.745 31.4001 112.94 31.4001 113.155C31.4001 113.37 31.4001 113.585 31.4001 113.81C31.4001 114.035 31.4001 114.26 31.4001 114.47C31.4001 114.68 31.4001 114.88 31.4001 115.055C31.3787 115.556 31.2774 116.051 31.1001 116.52C30.9363 116.968 30.6789 117.375 30.3451 117.715C29.9866 118.062 29.559 118.329 29.0901 118.5C27.9393 118.892 26.6909 118.892 25.5401 118.5C25.0725 118.325 24.6467 118.054 24.2901 117.705C23.9569 117.361 23.6997 116.95 23.5351 116.5C23.3623 116.03 23.2611 115.536 23.2351 115.035C23.2351 114.86 23.2351 114.665 23.2351 114.45C23.2351 114.235 23.2351 114.02 23.2351 113.79C23.2351 113.56 23.2351 113.345 23.2351 113.135C23.2351 112.925 23.2301 112.74 23.2351 112.565ZM29.5251 112.635C29.5262 112.347 29.4697 112.061 29.359 111.795C29.2482 111.529 29.0854 111.287 28.8801 111.085C28.5717 110.778 28.1793 110.568 27.7522 110.483C27.3252 110.398 26.8825 110.441 26.4797 110.606C26.077 110.772 25.7321 111.053 25.4884 111.414C25.2448 111.775 25.1132 112.2 25.1101 112.635C25.1101 112.985 25.1101 113.375 25.1101 113.805C25.1101 114.235 25.1101 114.63 25.1101 114.98C25.118 115.552 25.3496 116.097 25.7551 116.5C26.1985 116.855 26.7496 117.049 27.3176 117.049C27.8856 117.049 28.4367 116.855 28.8801 116.5C29.2849 116.105 29.5168 115.566 29.5251 115C29.5251 114.65 29.5551 114.255 29.5551 113.825C29.5551 113.395 29.5451 113 29.5251 112.635Z" fill="white"/>
<path d="M39.535 118.285C39.5355 118.334 39.526 118.383 39.5071 118.429C39.4882 118.474 39.4603 118.516 39.425 118.55C39.3548 118.62 39.2594 118.66 39.16 118.66H38.105C38.0565 118.66 38.0086 118.65 37.9639 118.631C37.9193 118.612 37.8789 118.585 37.845 118.55C37.8091 118.516 37.7803 118.475 37.7606 118.429C37.7408 118.384 37.7304 118.335 37.73 118.285V114.785C37.753 114.31 37.6176 113.84 37.345 113.45C37.1925 113.292 37.0096 113.166 36.8073 113.08C36.605 112.994 36.3874 112.949 36.1675 112.949C35.9477 112.949 35.7301 112.994 35.5278 113.08C35.3254 113.166 35.1425 113.292 34.99 113.45C34.692 113.829 34.5411 114.303 34.565 114.785V118.285C34.5655 118.334 34.556 118.383 34.5371 118.429C34.5182 118.474 34.4903 118.516 34.455 118.55C34.3848 118.62 34.2894 118.66 34.19 118.66H33.135C33.0356 118.66 32.9402 118.621 32.8698 118.55C32.7995 118.48 32.76 118.385 32.76 118.285V109.175C32.7602 109.127 32.77 109.079 32.7889 109.034C32.8077 108.989 32.8353 108.949 32.87 108.915C32.9042 108.879 32.9453 108.85 32.9908 108.831C33.0364 108.811 33.0854 108.8 33.135 108.8H34.19C34.2397 108.8 34.2889 108.81 34.3346 108.83C34.3802 108.85 34.4212 108.879 34.455 108.915C34.4906 108.948 34.5189 108.988 34.5378 109.033C34.5568 109.078 34.566 109.126 34.565 109.175V112.135C34.8134 111.89 35.1006 111.687 35.415 111.535C35.7756 111.371 36.1688 111.29 36.565 111.3C37.0503 111.285 37.5329 111.376 37.98 111.565C38.3395 111.724 38.6551 111.968 38.9 112.275C39.1385 112.579 39.309 112.93 39.4 113.305C39.4998 113.712 39.5485 114.131 39.545 114.55L39.535 118.285Z" fill="white"/>
<path d="M50.63 118.285C50.6305 118.334 50.621 118.383 50.6021 118.429C50.5832 118.474 50.5553 118.516 50.52 118.55C50.4491 118.62 50.3542 118.659 50.255 118.66H49.2C49.1006 118.66 49.0053 118.62 48.935 118.55C48.8997 118.516 48.8718 118.474 48.8529 118.429C48.834 118.383 48.8245 118.334 48.825 118.285V114.785C48.8488 114.309 48.7114 113.839 48.435 113.45C48.2829 113.292 48.1004 113.166 47.8985 113.08C47.6966 112.994 47.4794 112.95 47.26 112.95C47.0406 112.95 46.8234 112.994 46.6215 113.08C46.4196 113.166 46.2371 113.292 46.085 113.45C45.787 113.829 45.6361 114.303 45.66 114.785V118.285C45.66 118.385 45.6205 118.48 45.5502 118.55C45.4798 118.621 45.3845 118.66 45.285 118.66H44.23C44.1306 118.66 44.0353 118.62 43.965 118.55C43.9297 118.516 43.9018 118.474 43.8829 118.429C43.864 118.383 43.8545 118.334 43.855 118.285V111.815C43.8545 111.766 43.864 111.717 43.8829 111.671C43.9018 111.626 43.9297 111.585 43.965 111.55C43.9991 111.514 44.0403 111.486 44.0859 111.467C44.1315 111.448 44.1806 111.439 44.23 111.44H45.285C45.3343 111.44 45.3832 111.449 45.4288 111.468C45.4743 111.487 45.5156 111.515 45.55 111.55C45.6194 111.621 45.6588 111.716 45.66 111.815V112.135C45.9066 111.89 46.1921 111.687 46.505 111.535C46.8676 111.371 47.2623 111.291 47.66 111.3C48.1452 111.285 48.6279 111.376 49.075 111.565C49.4338 111.723 49.7481 111.967 49.99 112.275C50.2263 112.58 50.3966 112.931 50.49 113.305C50.5874 113.713 50.636 114.131 50.635 114.55L50.63 118.285Z" fill="white"/>
<path d="M55.3102 111.3C55.7806 111.294 56.2482 111.374 56.6902 111.535C57.0853 111.683 57.4485 111.906 57.7602 112.19C58.3704 112.752 58.741 113.527 58.7952 114.355C58.8009 114.462 58.8009 114.569 58.7952 114.675V115.445C58.801 115.548 58.801 115.652 58.7952 115.755C58.7603 116.169 58.652 116.574 58.4752 116.95C58.3035 117.316 58.0604 117.644 57.7602 117.915C57.448 118.196 57.0848 118.415 56.6902 118.56C56.2492 118.726 55.7811 118.807 55.3102 118.8C54.8376 118.807 54.368 118.725 53.9252 118.56C53.5321 118.415 53.1705 118.196 52.8602 117.915C52.5585 117.646 52.3152 117.317 52.1452 116.95C51.9644 116.575 51.8558 116.17 51.8252 115.755C51.8187 115.652 51.8187 115.548 51.8252 115.445C51.8252 115.32 51.8252 115.195 51.8252 115.065C51.8252 114.935 51.8252 114.805 51.8252 114.675C51.8187 114.569 51.8187 114.462 51.8252 114.355C51.8731 113.526 52.2448 112.748 52.8602 112.19C53.17 111.906 53.5316 111.683 53.9252 111.535C54.369 111.374 54.8381 111.295 55.3102 111.3ZM56.9902 114.425C56.9724 114.175 56.9025 113.932 56.7852 113.71C56.6908 113.531 56.5554 113.377 56.3902 113.26C56.2406 113.151 56.0706 113.073 55.8902 113.03C55.5151 112.943 55.1252 112.943 54.7502 113.03C54.5703 113.074 54.4006 113.152 54.2502 113.26C54.0863 113.378 53.9512 113.532 53.8552 113.71C53.7396 113.932 53.6714 114.175 53.6552 114.425C53.6489 114.517 53.6489 114.609 53.6552 114.7C53.6552 114.815 53.6552 114.93 53.6552 115.05C53.6552 115.17 53.6552 115.29 53.6552 115.405C53.6482 115.495 53.6482 115.585 53.6552 115.675C53.6714 115.925 53.7396 116.168 53.8552 116.39C53.9512 116.568 54.0863 116.722 54.2502 116.84C54.4006 116.948 54.5703 117.026 54.7502 117.07C55.126 117.15 55.5144 117.15 55.8902 117.07C56.0706 117.028 56.2406 116.949 56.3902 116.84C56.5554 116.723 56.6908 116.569 56.7852 116.39C56.9025 116.169 56.9724 115.925 56.9902 115.675C56.9902 115.61 56.9902 115.52 56.9902 115.405V114.7C57.0002 114.59 57.0002 114.5 57.0002 114.425H56.9902Z" fill="white"/>
<path d="M61.5551 116.69C61.6546 116.69 61.7499 116.73 61.8203 116.8C61.8906 116.87 61.9301 116.966 61.9301 117.065V118.285C61.9306 118.334 61.9211 118.383 61.9022 118.429C61.8833 118.474 61.8554 118.516 61.8201 118.55C61.7499 118.62 61.6545 118.66 61.5551 118.66H60.3601C60.3116 118.66 60.2637 118.65 60.219 118.631C60.1744 118.612 60.134 118.585 60.1001 118.55C60.0641 118.516 60.0354 118.475 60.0157 118.429C59.9959 118.384 59.9855 118.335 59.9851 118.285V117.065C59.9849 117.015 59.9951 116.966 60.0149 116.921C60.0347 116.875 60.0637 116.834 60.1001 116.8C60.1332 116.764 60.1735 116.736 60.2183 116.717C60.2632 116.698 60.3115 116.689 60.3601 116.69H61.5551ZM61.8601 115.48C61.8606 115.529 61.8511 115.578 61.8322 115.624C61.8133 115.669 61.7854 115.711 61.7501 115.745C61.716 115.781 61.6748 115.809 61.6292 115.828C61.5836 115.847 61.5345 115.856 61.4851 115.855H60.4301C60.3815 115.856 60.3332 115.847 60.2883 115.828C60.2435 115.809 60.2032 115.781 60.1701 115.745C60.1341 115.711 60.1054 115.67 60.0857 115.624C60.0659 115.579 60.0555 115.53 60.0551 115.48V109.315C60.0555 109.265 60.0659 109.216 60.0857 109.171C60.1054 109.125 60.1341 109.084 60.1701 109.05C60.204 109.015 60.2444 108.988 60.289 108.969C60.3337 108.95 60.3816 108.94 60.4301 108.94H61.5001C61.5995 108.94 61.6948 108.98 61.7651 109.05C61.8004 109.085 61.8283 109.126 61.8472 109.171C61.8661 109.217 61.8756 109.266 61.8751 109.315L61.8601 115.48Z" fill="white"/>
<path d="M103.295 74.125C110.98 68.375 115.795 60.155 115.795 51.03C115.795 33.635 98.3249 19.53 76.7949 19.53C55.2649 19.53 37.7949 33.63 37.7949 51.03C37.7949 68.43 55.2599 82.53 76.7949 82.53C82.0489 82.545 87.268 81.6779 92.2349 79.965C98.8849 84.465 110.645 82.61 114.525 76.855C109.86 77.86 105.58 76.855 103.295 74.125Z" fill="white"/>
<path d="M76.78 83C54.99 83 37.28 68.65 37.28 51C37.28 33.35 55.005 19 76.78 19C98.555 19 116.28 33.355 116.28 51C116.28 59.73 111.815 68.145 104.01 74.165C106.225 76.425 110.14 77.255 114.385 76.33C114.481 76.3145 114.578 76.327 114.667 76.3661C114.755 76.4051 114.831 76.469 114.884 76.55C114.937 76.631 114.965 76.7256 114.965 76.8223C114.965 76.919 114.938 77.0138 114.885 77.095C112.97 79.935 109.06 82.035 104.435 82.705C99.81 83.375 95.34 82.565 92.11 80.48C87.1732 82.1567 81.9938 83.0081 76.78 83ZM76.78 20C55.54 20 38.28 33.905 38.28 51C38.28 68.095 55.555 82 76.78 82C81.9758 82.0289 87.1395 81.1838 92.055 79.5C92.1284 79.4739 92.2068 79.4653 92.284 79.4748C92.3613 79.4844 92.4353 79.5118 92.5 79.555C95.5 81.555 99.92 82.405 104.33 81.765C108.105 81.215 111.33 79.685 113.295 77.585C108.97 78.19 105.065 77.04 102.91 74.46C102.867 74.4075 102.835 74.3467 102.816 74.2813C102.797 74.216 102.792 74.1475 102.8 74.08C102.808 74.0131 102.829 73.9485 102.863 73.8901C102.896 73.8317 102.941 73.7806 102.995 73.74C110.815 67.89 115.3 59.615 115.3 51.045C115.3 33.94 98 20.035 76.78 20.035V20Z" fill="#455A64"/>
<path d="M44.1 48.655C44.1405 47.8241 44.3092 47.0044 44.6 46.225C44.8674 45.4748 45.2958 44.7921 45.855 44.225C46.4437 43.6398 47.149 43.1849 47.925 42.89C48.8662 42.5386 49.8655 42.369 50.87 42.39C51.8674 42.3753 52.859 42.5448 53.795 42.89C54.5746 43.1804 55.2824 43.6358 55.87 44.225C56.4211 44.8004 56.8512 45.4805 57.135 46.225C57.4304 47.0065 57.5992 47.8302 57.635 48.665C57.635 48.955 57.635 49.28 57.67 49.635C57.705 49.99 57.67 50.35 57.67 50.725C57.67 51.1 57.67 51.465 57.67 51.82C57.67 52.175 57.67 52.495 57.635 52.785C57.5944 53.6159 57.4257 54.4356 57.135 55.215C56.8655 55.9642 56.4374 56.6464 55.88 57.215C55.289 57.7999 54.5798 58.2517 53.8 58.54C51.8905 59.1799 49.8244 59.1799 47.915 58.54C47.1386 58.2504 46.433 57.7987 45.845 57.215C45.2858 56.6478 44.8574 55.9652 44.59 55.215C44.2992 54.4356 44.1305 53.6159 44.09 52.785C44.09 52.495 44.06 52.175 44.055 51.82C44.05 51.465 44.055 51.1 44.055 50.725C44.055 50.35 44.055 49.985 44.055 49.635C44.055 49.285 44.085 48.945 44.1 48.655ZM54.53 48.77C54.5447 48.2922 54.4587 47.8166 54.2775 47.3742C54.0963 46.9318 53.8239 46.5326 53.4782 46.2024C53.1325 45.8723 52.7211 45.6186 52.2709 45.458C51.8206 45.2973 51.3416 45.2333 50.865 45.27C50.3884 45.2324 49.9092 45.2959 49.4589 45.4563C49.0085 45.6167 48.5971 45.8704 48.2516 46.2008C47.9061 46.5312 47.6342 46.9309 47.4539 47.3736C47.2735 47.8164 47.1887 48.2922 47.205 48.77C47.175 49.355 47.16 50.005 47.16 50.715C47.16 51.425 47.16 52.08 47.205 52.66C47.2055 53.1355 47.3003 53.6061 47.484 54.0447C47.6677 54.4832 47.9365 54.881 48.275 55.215C49.0123 55.7982 49.9249 56.1155 50.865 56.1155C51.805 56.1155 52.7176 55.7982 53.455 55.215C53.795 54.882 54.0652 54.4845 54.2498 54.0458C54.4344 53.607 54.5296 53.1359 54.53 52.66C54.56 52.08 54.575 51.43 54.575 50.715C54.575 50 54.56 49.355 54.53 48.77Z" fill="#E20046"/>
<path d="M71.125 58.14C71.1237 58.304 71.058 58.4609 70.942 58.5769C70.826 58.6929 70.669 58.7587 70.505 58.76H68.755C68.591 58.7587 68.434 58.6929 68.318 58.5769C68.202 58.4609 68.1363 58.304 68.135 58.14V52.295C68.1754 51.5067 67.9481 50.7278 67.49 50.085C67.2479 49.7961 66.9397 49.5698 66.5915 49.4253C66.2434 49.2808 65.8655 49.2224 65.49 49.255C65.1271 49.2376 64.765 49.3033 64.4314 49.4471C64.0978 49.591 63.8015 49.8091 63.565 50.085C63.0729 50.7132 62.8243 51.498 62.865 52.295V58.14C62.8662 58.2221 62.8504 58.3036 62.8186 58.3793C62.7867 58.4551 62.7395 58.5234 62.68 58.58C62.623 58.6373 62.5552 58.6827 62.4806 58.7136C62.4059 58.7445 62.3258 58.7603 62.245 58.76H60.5C60.3351 58.76 60.1769 58.6948 60.0598 58.5787C59.9428 58.4626 59.8763 58.3049 59.875 58.14V43.04C59.8763 42.8746 59.9426 42.7164 60.0595 42.5995C60.1764 42.4826 60.3346 42.4163 60.5 42.415H62.25C62.3311 42.4156 62.4113 42.4323 62.486 42.464C62.5606 42.4958 62.6283 42.542 62.685 42.6C62.7445 42.6566 62.7917 42.7249 62.8236 42.8006C62.8554 42.8763 62.8712 42.9578 62.87 43.04V47.94C63.2806 47.5322 63.7552 47.1944 64.275 46.94C64.8739 46.6668 65.527 46.5335 66.185 46.55C66.991 46.5239 67.793 46.674 68.535 46.99C69.1218 47.2537 69.6364 47.655 70.035 48.16C70.4273 48.6667 70.7069 49.2514 70.855 49.875C71.0177 50.5512 71.0983 51.2445 71.095 51.94L71.125 58.14Z" fill="#E20046"/>
<path d="M89.4999 58.14C89.4986 58.3041 89.4329 58.461 89.3169 58.577C89.2009 58.693 89.044 58.7587 88.8799 58.76H87.1299C87.0483 58.7607 86.9674 58.7451 86.8919 58.7142C86.8164 58.6833 86.7477 58.6376 86.69 58.5799C86.6323 58.5222 86.5867 58.4536 86.5558 58.3781C86.5249 58.3026 86.5093 58.2216 86.5099 58.14V52.295C86.5503 51.5067 86.323 50.7279 85.8649 50.085C85.6228 49.7961 85.3146 49.5698 84.9665 49.4254C84.6183 49.2809 84.2405 49.2224 83.8649 49.255C83.502 49.2376 83.14 49.3033 82.8064 49.4472C82.4727 49.591 82.1764 49.8092 81.9399 50.085C81.4478 50.7132 81.1992 51.4981 81.2399 52.295V58.14C81.2411 58.2222 81.2253 58.3037 81.1935 58.3794C81.1617 58.4551 81.1145 58.5234 81.0549 58.58C80.998 58.6374 80.9302 58.6828 80.8555 58.7137C80.7808 58.7446 80.7008 58.7603 80.6199 58.76H78.8699C78.7883 58.761 78.7073 58.7456 78.6317 58.7147C78.5561 58.6837 78.4875 58.638 78.4299 58.58C78.3704 58.5234 78.3232 58.4551 78.2914 58.3794C78.2595 58.3037 78.2437 58.2222 78.2449 58.14V47.41C78.2475 47.2455 78.3144 47.0886 78.4312 46.9727C78.548 46.8569 78.7054 46.7913 78.8699 46.79H80.6199C80.7836 46.7926 80.9398 46.8588 81.0555 46.9745C81.1712 47.0902 81.2374 47.2464 81.2399 47.41V47.94C81.6505 47.5322 82.1251 47.1944 82.6449 46.94C83.2438 46.6669 83.8969 46.5335 84.5549 46.55C85.361 46.5239 86.163 46.6741 86.9049 46.99C87.4917 47.2537 88.0063 47.6551 88.4049 48.16C88.7973 48.6668 89.0768 49.2515 89.2249 49.875C89.3876 50.5512 89.4682 51.2446 89.4649 51.94L89.4999 58.14Z" fill="#E20046"/>
<path d="M97.2801 46.56C98.0609 46.5491 98.837 46.6813 99.5701 46.95C100.225 47.1962 100.827 47.5644 101.345 48.035C101.84 48.4928 102.245 49.0388 102.54 49.645C102.835 50.2727 103.005 50.9521 103.04 51.645C103.049 51.8216 103.049 51.9985 103.04 52.175V53.455C103.049 53.6216 103.049 53.7884 103.04 53.955C102.983 54.6478 102.804 55.325 102.51 55.955C102.223 56.5603 101.82 57.1038 101.325 57.555C100.807 58.0209 100.204 58.3841 99.5501 58.625C98.0677 59.1449 96.4525 59.1449 94.9701 58.625C94.316 58.3841 93.7136 58.0209 93.1951 57.555C92.6969 57.1065 92.2939 56.5624 92.0101 55.955C91.714 55.3259 91.5344 54.6482 91.4801 53.955C91.4801 53.82 91.4551 53.645 91.4451 53.455C91.4351 53.265 91.4451 53.035 91.4451 52.82C91.4451 52.605 91.4451 52.39 91.4451 52.175C91.4451 51.96 91.4451 51.785 91.4801 51.645C91.5126 50.9518 91.6825 50.2719 91.9801 49.645C92.2733 49.0378 92.6788 48.4915 93.1751 48.035C93.7077 47.559 94.3275 47.1905 95.0001 46.95C95.73 46.6821 96.5027 46.5499 97.2801 46.56ZM100.065 51.74C100.039 51.3258 99.9243 50.9219 99.7301 50.555C99.571 50.2589 99.3471 50.0026 99.0751 49.805C98.8186 49.6253 98.5301 49.4963 98.2251 49.425C97.9144 49.3591 97.5977 49.3256 97.2801 49.325C96.9625 49.3249 96.6457 49.3584 96.3351 49.425C96.0301 49.4963 95.7416 49.6253 95.4851 49.805C95.2117 50.0024 94.9861 50.2587 94.8251 50.555C94.6344 50.923 94.5221 51.3265 94.4951 51.74C94.4951 51.865 94.4651 52.015 94.4601 52.2C94.4551 52.385 94.4601 52.575 94.4601 52.775C94.4601 52.975 94.4601 53.17 94.4601 53.365C94.4636 53.5155 94.4753 53.6658 94.4951 53.815C94.5221 54.2286 94.6344 54.632 94.8251 55C94.9862 55.2949 95.2118 55.5496 95.4851 55.745C95.7405 55.9267 96.0294 56.0559 96.3351 56.125C96.6451 56.1956 96.9622 56.2308 97.2801 56.23C97.598 56.2303 97.915 56.195 98.2251 56.125C98.5308 56.0559 98.8198 55.9267 99.0751 55.745C99.3468 55.5493 99.5708 55.2946 99.7301 55C99.9243 54.6331 100.039 54.2293 100.065 53.815C100.083 53.6657 100.092 53.5154 100.09 53.365V52.2C100.091 52.0463 100.083 51.8927 100.065 51.74Z" fill="#E20046"/>
<path d="M107.64 55.5C107.804 55.5013 107.961 55.5671 108.077 55.6831C108.193 55.799 108.259 55.956 108.26 56.12V58.12C108.259 58.284 108.193 58.441 108.077 58.557C107.961 58.673 107.804 58.7387 107.64 58.74H105.64C105.475 58.74 105.317 58.6749 105.2 58.5587C105.083 58.4426 105.016 58.2849 105.015 58.12V56.12C105.016 55.9551 105.083 55.7974 105.2 55.6813C105.317 55.5652 105.475 55.5 105.64 55.5H107.64ZM108.14 53.5C108.139 53.664 108.073 53.821 107.957 53.937C107.841 54.053 107.684 54.1187 107.52 54.12H105.77C105.606 54.1187 105.449 54.053 105.333 53.937C105.217 53.821 105.151 53.664 105.15 53.5V43.27C105.151 43.1047 105.218 42.9464 105.335 42.8295C105.452 42.7126 105.61 42.6463 105.775 42.645H107.525C107.606 42.6451 107.687 42.6615 107.761 42.6933C107.836 42.7251 107.904 42.7716 107.96 42.83C108.02 42.8866 108.067 42.9549 108.099 43.0307C108.131 43.1064 108.146 43.1879 108.145 43.27L108.14 53.5Z" fill="#E20046"/>
<path d="M208.7 46.15C208.875 45.58 207.995 45.555 207.7 45.695C206.595 46.195 205.725 47.49 204.93 48.37C203.93 49.49 202.908 50.6033 201.865 51.71C199.98 53.74 198.025 55.71 196.1 57.71C196.006 57.8166 195.947 57.9488 195.929 58.0896C195.911 58.2305 195.936 58.3734 196 58.5C196.054 58.617 196.132 58.7217 196.228 58.8076C196.325 58.8936 196.437 58.959 196.56 59C196.741 59.0854 196.944 59.1143 197.142 59.0831C197.34 59.0519 197.524 58.962 197.67 58.825C199.625 56.76 201.51 54.635 203.415 52.525C204.355 51.485 205.288 50.44 206.215 49.39C207.065 48.455 208.32 47.37 208.7 46.15ZM211.885 61.365C213.11 61.065 214.755 60.865 215.76 60.1C216.23 59.735 215.52 59.215 215.185 59.15C214 58.92 212.54 59.495 211.385 59.765C209.91 60.105 208.44 60.44 206.965 60.765C204.255 61.355 201.525 61.86 198.81 62.395C198.672 62.4368 198.549 62.5201 198.46 62.6337C198.37 62.7473 198.318 62.8856 198.31 63.03C198.29 63.1559 198.295 63.2846 198.326 63.4084C198.357 63.5321 198.413 63.6483 198.49 63.75C198.588 63.9234 198.735 64.0637 198.913 64.1528C199.092 64.2419 199.292 64.2757 199.49 64.25C202.275 63.67 205.035 63 207.805 62.355C209.16 62.025 210.525 61.695 211.885 61.365ZM199.565 70C202.275 70.87 205.005 71.65 207.735 72.455C209.075 72.855 210.42 73.24 211.77 73.625C212.98 73.965 214.5 74.625 215.77 74.44C216.36 74.35 216 73.55 215.74 73.325C214.825 72.54 213.24 72.325 212.13 71.985C210.68 71.555 209.235 71.12 207.79 70.67C205.145 69.85 202.52 68.94 199.895 68.065C199.751 68.0291 199.6 68.0387 199.462 68.0925C199.324 68.1462 199.206 68.2414 199.125 68.365C199.047 68.4653 198.989 68.5802 198.956 68.7029C198.922 68.8256 198.913 68.9538 198.93 69.08C198.932 69.2791 198.994 69.4731 199.107 69.637C199.22 69.8009 199.379 69.9273 199.565 70Z" fill="#E0E0E0"/>
</svg>
